<?xml version="1.0" encoding="UTF-8"?><svg id="uuid-6d72782d-d6c6-412a-a9c4-f95d53e8d228" xmlns="http://www.w3.org/2000/svg" viewBox="0 0 6278.01 2767.94"><defs><style>.uuid-75b31003-e348-46ef-8c0d-3a2dca047061{fill:#133b85;}</style></defs><g id="uuid-3972e5c7-da74-420e-a2b3-096665ea6038"><polygon class="uuid-75b31003-e348-46ef-8c0d-3a2dca047061" points="4790.08 1838.87 4656.58 1972.38 4523.07 1838.87 4656.58 1705.37 4790.08 1838.87"/><path d="M5317.31,1489.13c99.53,146.59,447.19,350.89,636.97,357.17-274.82-32.17-594.35-365.05-589.69-365-62.6-76.23-83.13-64.93-162.85-132.51-36.79-31.16-145.6-258.65-158.59-263.19-23.49-8.26-76.11,55.98-112.54,30.11-32.66-23.25-51.74-60.92-91.28-88.1-7.39-5.1-178.34-52.64-178.34-52.64-113.69-173.44-94.22-81.95-230.85-223.97,9.58,12.96-.72-.75,0,0-1.17-1.55-26.12-41.56-38.37-59.39-19.07,10.43-28.1,7.39-39.24,19.25-21.81,23.26-71.56,98.7-119.28,135.31-66.96-.59-152.91-5.16-203.9-30.62-65.98-33-94.94-130.29-112.6-146.36-14.15-12.9-136.94-26.91-192.32-58.48-12.88-7.36-26.91-19.43-41.31-31.88-11.92-35.74-28.97-138.13-36.71-156.79-3.89-9.34-53.3-20.39-91.3-41.52-101.96-56.74-158.08-174.45-216.98-270.29,1.4-1.28-9.57-19.64-19.02-34.93-6.29-10.17-82.66-76.83-87.08-75.3-14.23,4.94-163.5,157.17-170.93,168.13-42.01,61.95-168.67,307.76-241.57,281.39-24.77,26.75-77.85,116.75-118.79,153.36-1.16,1.35-87.46,85.78-91.2,89.69-21.72-14.62-99.91-50.86-156.1-118.82-37.22-45.07-42.69-80.6-98.65-114.96-49.81-30.53-94.96-62.7-140.74-99.25-1.28-4.76-20.75,2.59-20.75,2.59,.29,2.93-72.44,76.45-139.34,177.55-33.53,50.63-98.47,85.76-114,95.03-28.5,17.05-91.27,233.81-149.89,275.39-1.24,0-56.99,12.18-58.5,12.72-150.24,257.37-275.99,321.17-273.49,323.58,3.92,3.85-180.86-58.46-193.27-48.74-126.53,99.56-295.44,321.71-307.82,341.19-48.33,76.07-414.25,237.54-448.43,246.15,239.03-41.84,366.54-147.92,457.33-200.51,.55-.21,1.14-.43,1.47-.61,103.47-43.87,224.82-283.47,324.73-335.04-8.59,14.72,73.49,165.32,62.69,186.43-30.71,30.57-86.35,86.17-96.07,88.58-31.68,7.72-67.78,57.16-107.23,98.36,59.1-54.11,185.91-128.82,187.06-130.85,38.67-31.5,72.89-79.63,89.19-115.19,74.51-46.07,118.54-32.92,122.41-36.53,3.98-3.63,46.69-82.27,91.59-181.16,36.7-61.64,73.15-123.34,109.59-185.12,21.74,5.64,37.19,7,53.53,7.83,52.76,58.17,55.3,117.17,44.68,134.86-14.82,24.77-53.25,85.26-67.52,124.14,36.87-55.74,78.68-101,86.12-120.51,6.38-16.7,9.51-37.86,17.82-58.68,76.13-57.98,18.58-28.24,82.16-127.94,33.19-24.98,56.49-51.89,113.42-139.37,7.19,119.73-23.38,92.67-47.28,154.23,26.42-14.7,59.47-68.38,77.27-96.06,19.41-30.11,12.75-58.01,18.94-93.47,1.62-9.27,70.49-221.26,82-264.6,16.17,25.2,45.9,58.1,90.29,114.44,1.08,2.51,2.04,5.04,3.01,7.6,1,48.04,4.12,118.32,12.05,126.12,30.99,30.47,75.92,101.42,84.11,180.78,3.26,31.24,10.91,64.1,20.03,93.89-.23-34.66,.19-69.31,.47-103.94,.22-27.25-6.08-34.87-20.26-59.93-14.87-26.27-25.15-54.45-37.76-81.74-15.1-32.72-39.83-28.84-19.45-130.04,16.14,9.49,32.28,23.66,44.44,34.76,8.89,38.73,12.84,72.25,12.93,93.28,51.12,46.01,73.87,45.66,92,75.27,4.8,7.88,23.08,21.48,47.11,37.46,18.08,38.4,21.16,49.97,42.37,63.49,25.65,16.27,63.63,33.99,88.36,57.58-36.78,21.16-97.25,54.72-108.25,63.25-65.81,27.44-143.63,22.61-164.03,53.9-3.09,5.24-3.73,7.91-5.7,12.02-65.08,145.73-70.44,183.01-196.93,259.32-226.34,40.48-258.48-38.61-360.72-86.04h-.13c-3.98-5.1-74.04,55.28-100.02,89.81-26.03,34.58-171.4,240.61-191.74,243.13,0,.03-40.47,5.16-39.26,5.32-66.67-12.05-113.95-21.83-198-79.71-119.14,155.4-305.64,330.45-503.9,347.09,195.95,1.58,385.56-153.03,510.87-298.62,18.35,12.37,193.23,53.17,221.76,105.55,0,4.86,105.66-147.98,166.21-201.23,43.09-37.54,84.13-105.49,126.97-153.45,111.96,135.76,88.65,37.68,153.43,261.03,2.49,8.55,25.76,22.79,55.19,42.01,39.39,25.73,21.62,66.48,33.64,84.68,4.09,6.15,60.76,88.15,77.19,106.08-8.07-19.67-42.58-87.53-52.04-135.28-9.45-47.7,6.16-75.24-6.91-112.33,20.29,16.81,36.65,34.63,52.79,53.9,24.1,69.69,77.85,130.39,165.79,167.7,15.56,10.26,31.2,18.6,46.82,24.34-150.38,76.02-219.72,160.4-327.92,184.31,125.45-18.3,156.67-62.34,316.42-128.87,6.74-.19,63.17-31.88,79.92-40.88l-6.85-7.13c.23-.13,.5-.27,.71-.43,19.96-10.77,81.81-55.42,84.59-57.93,23.01-20.98,73-84.94,75.22-93.41,28.54-46.31,54.51-93.52,79.87-141.4,42.4-10.53,87.49-27.55,125.2-49.78,22.4-1.36,21.01,13.87,40.29,24.05,3.36,93.68-47.45,139.32-79.29,225.44,3.02-1.5,70.03-91.14,79.19-111.53,17.84-40.08,26.35-20.44,30.23-126.28,14.51-22.47,20.23-52.4,40.9-73.11,21.83-21.91,71.82-43.71,70.17-77.49,118.68-69.05,159.67-164.25,201.84-223.17,90.15,103.17,86.25,178.89,217.56,287.24,29.57,43.82,53.2,127.13,88.22,194.87,18.96,13.55,36.67,28.51,53.8,44.25,6.47,5.34,44.06,34.98,44.87,35.59l-.03-.08c33.65,25.14,131.26,37.11,171.72,50.9-20.33-29.1-129.53-57.98-142.97-84.3-27.3-53.55-81.43-168.98-77.51-195.97,2.46-17.07,52.57-41.5,82.58-56.49,2.81,2.73,5.6,5.48,8.2,8.36,12.81,42.03,49.97,117.89,48.24,116.74,0,0,13.86,18.7,18.29,25.25,7.9-.05,199.12,166.41,199.12,166.41,5.45-2.59,16.59-7.83,16.59-7.83,25.73-12.1,109.23,17.8,185.04,35.14,29.19,6.65,207.31,156.02,218.28,153.88,4.99-5.37-124.48-124.84-146.41-146.59-22.55-22.28-182.87-156.55-173.2-159.41,1.24-7.32-91.65-83.45-179.12-135.6-50.84-30.35-120.41-129.43-160.05-152.79-8.54-5.02-27.19-31.1-32.41-27.73-9.86,6.47-66.94,27.12-75.26,27.12-2.49,0-62.43-7.83-105.84-25.12-97.88-38.96-166.43-156.37-244.07-219.48-1.82,2.97-70.11,36.53-73.73,32.55-121.15,160.08-65.78,189.23-271.74,267.42-24.32,56.73-120.09,123.63-205.38,144.5-49.05,97.88-80.36,157.06-105.72,195.59-33.2-17.26-74.38-22.15-100.82-40.21-43.23-29.53-67.96-84.89-109.61-117.7-24.98-19.67-90.35-39.41-106.24-65.46-20.42-33.37-.82-69.28,27.97-98.62,5.7,12.56,88.64-56.41,110.91-78.32,.65-.45,51.59-73.59,52.03-112.14,42.12-70.65-3.81-72.31,162.17-128.42,45.58,4.44,65.03-16.62,80.96-21.27-9.97,17.13-18.02,34.39-23.32,56.11-7.69,31.48-5.58,71.88-22.43,102.1-34.26,61.51-100.35,121.02-120.07,186.05,32.52-36.98,57.37-78.58,94.24-112.41,24.9-22.85,60.86-37.84,78.08-66.56,36.57-60.95,30.22-155.4,81.69-210.95,3.75-1.07,7.49-2.16,11.22-3.15,0-.43-.03-.88,0-1.31,14.29-1.2,148.64-129.19,153.61-129.19,68.28-93.12,118.33-231.44,123.26-238.2,19.12-2.81,33.71,4.44,49.19,7.08,9.87,13.81,21.18,28.86,23.22,45.75,2.31,19.64,3.51,42.63,3.95,66.36-5.12,28.38-9.06,60.52-1.44,88.69-.71,15.92-1.63,30.73-2.66,43.45,2.57-9.91,5-19.96,7.41-30.09,1.19,2.81,2.48,5.45,4,8.12-.9-6.55-1.37-12.77-1.55-18.81,17.31-76.47,29.82-156.94,46.27-230.45,7.02-31.44,6.25-64.04,5.91-96.55,9.6-45.95,16.48-94.24,19.35-119.69,5.3-8.56,10.69-16.99,16.05-25.38,8.22,1.5,54.31-151.73,69.6-174.56-1.47,9.62,81.9,109.1,74.72,112.61,9.18,14.47,55.71,42.8,96.05,95.99,8.7,11.54,19.51,20.07,29.26,30.03,7.99,33.35,18.32,66.48,23.02,100.39,5.83,41.54-9.17,90.21,.28,129.66,5.7,23.97,26.69,45.22,39.77,67.28,22.46,37.84,39.46,80.8,64.94,116.71-62.63-102.77-54.68-270.01-61.14-344.97,13.1,3.7,26.39,3.51,41.04,1.07,8.28,42.1-6.18,112.4,48.86,192.84,38.06,151.17,37.86,93.4,97.92,131.85,17.2,46.55,36.37,92.99,47.74,140.33,7.29,30.51-.23,76.1,10.44,101.67,19.14,45.96,88.36,110.73,119.83,154.34,37.08,51.41,67.09,111,109.55,158.9-35.98-89.86-86.83-176.3-121.11-267.74-38.96-104.16-66.47-203.21-87.6-307.25,12.08,4.28,23.7,15.77,36.75,17.58-1.47-21.4-18.24-46.49-2.02-63.38,14.75-8.71,119.61,169.75,162.33,261.14l-17.74,7.75c.95,1.18,1.8,2.51,2.7,3.77,15.1,52.34,35.9,180.95,35.9,180.95,17.01,36.42,88.78,59.83,91.9,64.42,14.6,21.91,30.35,68.48,38.88,67.15,12.8,17.26,290.64,15.95,294.34,17.77-4.94,1.66,207.93,186.93,281.25,234.92,23.79,27.55,146.68,101.91,151.7,106.88,103.59,52.59,224.63,48.55,332.62,54.86-.27-2.25-62.19-30.54-62.16-32.68-61.85-8.07-113.53,16.99-184.96-12.4-.85-.35-57.53-20.17-58.24-20.73-81.74-60.92-125.25-103.38-178.4-135.26-80.47-77.81-206.3-209.78-226.06-243.1-109.63-36.55-114.92,30.03-227.56-29.93-118.72-62.61-190.61-94.32-228.52-191.69,.53-.59,67.47-91.78,92.32-123.07-.39,3.47,16.64-39.31,17.22-36.42,30.31-3.66,112.43-86.79,117.98-83.18l-7.43,53.04c.67,2.7,16.75,66.69-23.8,104.26-1.3,1.2-15.23,73.93-15.89,77.7,13.98-17.69,22.11-41.5,36.54-60.52,38.08-50.15,43.03-64.05,44.03-175.39,6.49-18.28,37.17-63.03,40.9-66.72,16.89-13.57,37.2-33.53,50.74-49.49l8.54-3.71c15.87,25.38,31.36,54.4,47.42,93.39,13.86,33.21,46.63,100.52,46.63,100.52,35.79,37.3,68.12,112.87,79.53,129.32,1.17,19.08,1.42,38.24,1.52,56.09,14.24-8.66,19.99-28.54,27.14-44.46,8.28,2.67,15.98,4.6,19.48,3.98,14.82,26.08,22.24,56.51,31.46,84.14,13.21,39.63,36.92,55.61,58,87.35,15.21,63.22,56.87,95.34,74.27,147.28,95.49-.51,173.25,194.47,245.28,246.17-32.23-99.93-163.64-189.37-216.18-316.37-3.46-8.39-6.23-17.45-8.62-26.85,4.04-34.76,13.91-109.37,22.55-111.64,13.94-3.63,62.24,14.35,87.44,20.63,11.88,39.6,102.4,146.64,102.4,146.64,0-4.86,65.53,68.51,76.8,68.22,11.94,18.76,140.65,121.04,151.12,141.35,10.3,19.77,119.17,71.1,133.81,87.75-9.39-48.15-102.72-163.58-57.84-178.92ZM2161.62,527.89c-5.17,.21-10.01-1.36-15.95-6-29.12,43.51-16.55,78.8-50.82,167.27-79.95,150.3-161.02,268.06-306.63,247.56,88.58-42.4,127.37-195.44,182.09-266.04,30.74-39.65,79.91-40.21,92.92-69.47,11.36-25.54,88.8-146.27,137.5-195.53-7.55,29.26-29.29,91.4-39.1,122.21ZM3202.29,208.34c-19.51,63.97-85.45,138.65-85.45,168.09,0,12.99-33.47,146.21-33.47,146.21-7.44,10.94-64.15,52.43-96.62,73.11-2.18,1.56-77.8,140.72-108.57,190.91-4.35,12.08-32.1,56.67-43.91,48.07-25.31-18.49-46.35-63.51-46.35-65.36,0-4.09-116.35-35.04-117.07-38.38,56.97-55.24,183.76-224.6,193.26-233.92,11.9-11.69,65.09-45.62,103.68-71.56-13.41,89.67-26.17,71.18-55.22,122.48,67.21-33.15,85.28-90.94,97.09-154.29,40.35-68.23,90.95-190.92,103.47-210.94,18.14-29.09,84.5-90.41,111.46-116.95,7.44-7.29-11.14,106-22.3,142.52Z"/><path d="M0,1765.15c60.82-10.38,192.85-20.77,315.97-20.77,142.41,0,226.96,8.9,305.58,48.95,77.14,35.6,134.99,108.29,134.99,204.71,0,84.55-45.99,166.15-163.18,210.65v2.97c123.12,34.11,195.81,124.6,195.81,243.28,0,93.45-44.5,167.63-111.26,218.06-75.65,56.37-200.26,89.01-413.88,89.01-121.64,0-209.16-7.41-264.05-16.32v-980.54Zm264.93,565.75l.61,232.32c19.28,2.97,43.02,2.97,77.13,2.97,89.01,0,164.67-35.6,164.67-123.13s-36.94-118.85-137.81-118.85l-26.6-.13,50.3-187.29,14.5-.79c60.13-.05,78.35-66.85,80.32-103.83,3.16-59.26-44.5-96.43-134.99-96.43-44.5,0-69.72,2.97-87.52,5.93v194.33l-.61,194.9Z"/><path d="M927.18,1698.4h267.01v1053.23h-267.01V1698.4Z"/><path d="M2079.79,2502.41c0,103.83,2.97,186.91,5.93,249.21h-229.92l-11.87-96.42h-5.93c-26.7,40.05-90.49,112.74-221.03,112.74-163.18,0-258.11-105.32-258.11-315.97v-430.19h267.02v387.17c0,93.46,31.15,143.89,93.46,143.89,50.43,0,75.65-34.11,86.04-62.3,5.93-10.38,7.42-23.74,7.42-38.57v-430.19h267.01v480.63Z"/><path d="M2464.03,2480.16c8.89,57.85,93.46,90.49,186.91,90.49,69.72,0,134.99-7.42,200.26-28.19l34.12,178.01c-87.52,35.6-182.46,45.99-272.95,45.99-256.63,0-402-140.93-402-372.34,0-170.59,109.77-388.65,378.27-388.65,235.87,0,336.74,173.55,336.74,373.81,0,44.51-5.93,83.07-10.38,100.88h-450.95Zm215.1-180.98c0-41.54-19.29-118.67-103.84-118.67-78.62,0-109.77,72.68-114.23,118.67h218.07Z"/><path class="uuid-75b31003-e348-46ef-8c0d-3a2dca047061" d="M3321.42,2412.21l.04,339.41h-265.54v-986.47c72.69-11.87,178.01-20.77,330.8-20.77,143.89,0,289.77,22.93,359.49,76.33,68.24,50.43,114.23,139.44,114.23,241.8s-34.12,189.88-96.43,246.24c-81.58,72.69-171.41,109.91-306.4,109.91-25.22,0-46.23-1.87-62.54-3.36l55.68-210.38c14.84,1.48,34.96,2.95,63.14,2.95,72.44,0,82.51-104.79,82.51-139.44,0-74.17-93.96-122.32-194.83-122.32-40.06,0-66.76,2.97-80.1,5.93v255.15l-.04,205Z"/><path class="uuid-75b31003-e348-46ef-8c0d-3a2dca047061" d="M3931.17,2268.03c0-115.71-2.97-185.43-5.93-246.24h228.44l8.9,132.02h5.93c38.57-111.26,132.02-148.34,194.33-148.34,23.73,0,34.11,0,53.4,4.44v250.7c-19.29-4.45-40.06-7.42-68.24-7.42-78.62,0-132.02,32.64-145.38,91.98-2.96,13.35-4.45,28.18-4.45,45.99v360.47h-267.01v-483.6Z"/><rect class="uuid-75b31003-e348-46ef-8c0d-3a2dca047061" x="4523.07" y="2021.79" width="267.01" height="729.84"/><path class="uuid-75b31003-e348-46ef-8c0d-3a2dca047061" d="M4956.24,2269.52c0-96.43-2.97-180.98-5.93-247.73h229.92l11.87,93.45h5.94c26.7-38.57,96.42-109.77,218.06-109.77,170.59,0,262.57,115.7,262.57,315.96v430.19h-267.02v-397.55c0-84.55-29.67-133.51-93.46-133.51-51.91,0-75.65,35.6-87.52,63.79-5.93,13.35-7.42,34.12-7.42,53.41v413.87h-267.01v-482.11Z"/><path class="uuid-75b31003-e348-46ef-8c0d-3a2dca047061" d="M6126.7,1814.1v207.68h151.31v195.81h-151.31v209.16c0,87.52,20.77,123.13,84.55,123.13,28.19,0,48.95-2.97,63.79-5.93v203.22c-31.15,10.38-90.49,19.29-158.72,19.29-78.62,0-143.89-26.7-182.46-65.28-44.51-44.5-68.24-117.19-68.24-228.44v-255.14h-90.49v-195.81h90.49v-148.35l261.08-59.33Z"/></g></svg>