<?xml version="1.0" encoding="UTF-8"?><svg id="uuid-843ac4a0-0224-4582-bfb2-18015280f20d" xmlns="http://www.w3.org/2000/svg" viewBox="0 0 460.53 876.72"><defs><style>.uuid-a9cc6d60-4b22-49c7-a2b4-b6abc492e9d2{stroke:#000;stroke-miterlimit:10;stroke-width:3px;}.uuid-2e837c3e-cea5-45af-9754-f58a6c82a722{fill:#b41c31;}.uuid-2e837c3e-cea5-45af-9754-f58a6c82a722,.uuid-f7e84821-acf1-4e54-9b00-d5676e15ba64,.uuid-08c4f25f-45e4-4a8f-980a-30b78ecda0c5{stroke-width:0px;}.uuid-f7e84821-acf1-4e54-9b00-d5676e15ba64{fill:#fff;}.uuid-08c4f25f-45e4-4a8f-980a-30b78ecda0c5{fill:#3b3676;}</style></defs><g id="uuid-b5ec829b-95d9-44b0-b46f-36f27f6d973a"><g id="uuid-ef40ccf0-2ad9-4c77-ae8f-7895b8ad51f7"><path class="uuid-f7e84821-acf1-4e54-9b00-d5676e15ba64" d="m458.51,752.85l-5.06,10.78c-.54,1.14-1.56,2.9-2.28,3.93l-4.21,5.98c-.63.9-1.48,2.51-1.86,3.53l-3.03,8.1c-.44,1.16-1.25,3-1.82,4.1l-5.09,9.8c-.49.96-1.09,2.67-1.3,3.73l-1.07,5.35c-.14.73-.49,1.52-.95,2.25-.48.77-1.08,1.46-1.71,1.92l-4.68,3.43c-1.36,1-3.55,1.08-4.98.18l-6.15-3.89c-.86-.55-2.5-1.16-3.51-1.33l-1.96-.31-1.6-.26c-.79-.12-2.03-.01-2.93.26-.19.05-.36.11-.51.18l-11.47,5.04c-1.12.49-2.98,1.21-4.14,1.61l-8.32,2.83c-.84.29-1.98,1.25-2.4,2.03l-1.29,2.39c-.53.98-1.24,2.69-1.56,3.75l-1.43,4.78c-.53,1.77-2.42,2.85-4.22,2.41l-10.8-2.68c-.94-.23-2.57-.17-3.48.14l-3.74,1.25c-.96.32-2.46,1.21-3.21,1.9l-1.71,1.57c-.66.61-1.37,1.98-1.49,2.87l-.98,7.42c-.14,1.11-.21,2.98-.14,4.09l.24,4.11c.06.98-.3,1.85-.99,2.39-.69.55-1.62.69-2.56.4l-2.37-.71c-1.07-.33-2.91-.72-4.02-.86-1.28-.15-2.83-.31-3.34-.31-.37.17-1.36.67-2.19,1.11-.89.46-2.17,1.58-2.75,2.39l-.08.11c-.7.99-1.9,2.57-2.65,3.52l-7.03,8.92s-.03.03-.05.05c-.04.04-.08.08-.13.12-.02.02-.05.05-.07.06-.04.04-.1.06-.14.09-.03.01-.06.03-.08.04-.05.03-.11.05-.18.06-.02,0-.04.02-.07.02-.09.02-.17.03-.26.03h-.05l-284.53-10.32s-.02,0-.03,0c-.06,0-.12-.01-.19-.02-.02,0-.03,0-.05-.01-.07-.02-.14-.04-.2-.07-.02,0-.03-.02-.05-.02-.05-.02-.1-.06-.15-.08-.02-.02-.03-.02-.05-.04-.05-.04-.11-.09-.16-.14h0c-.04-.06-.09-.11-.13-.17-.01-.02-.02-.03-.03-.05-.02-.02-.03-.04-.04-.06l-2.89-5.68c-.51-.99-1.52-2.54-2.21-3.41l-.22-.26c-.62-.78-1.97-1.81-2.89-2.21-.56-.24-3.33-1.47-3.65-1.63-.99-.49-3.37-4.91-3.55-5.4-.18-.46-.38-1.15-.6-1.89-.27-.91-.6-2.04-.83-2.5-.46-.93-3.46-7.04-3.58-7.3-.57-1.16-1.24-3.08-1.53-4.34l-1.77-7.86c-.31-1.38-.19-3.51.27-4.85l1.66-4.81.92-2.65c.42-1.23,1.3-3.05,1.99-4.14.95-1.5,2.04-3.39,2.23-3.93.01-.92-.65-6.31-1.31-11.13-.23-1.67.66-3.63,2.08-4.55l6.57-4.29c.99-.64,2.59-1.72,3.58-2.4l2.39-1.65c.71-.48,1.47-1.7,1.6-2.54l.97-6.18c.17-1.1.28-2.97.23-4.08l-.34-8.76c-.06-1.51.64-3.52,1.62-4.68l3.76-4.41.28-.33c.59-.69,1.17-2.16,1.21-3.08l.35-7.33c.05-1-.25-2.7-.65-3.63l-2.8-6.62c-.56-1.31-.82-3.42-.61-4.82l2.31-15.56c.18-1.2.51-3.15.75-4.34l2.66-13.36c.26-1.27.85-3.18,1.35-4.37l1.96-4.62,1.05-2.46c.42-.98.85-2.71.93-3.77.28-3.65.58-7.81.56-8.34-.17-.8-.48-3.18-1.49-11.19-.16-1.35-.01-3.43.35-4.73l5.3-19.03c.3-1.1.7-2.96.86-4.09l1.44-9.95c.14-.98-.03-2.67-.36-3.61l-.4-1.15-2.13-6.1c-.5-1.41-.46-3.54.09-4.93l2.82-7.23c.4-1.01.83-2.78.94-3.86l.57-5.48c.16-1.57,1.3-3.39,2.65-4.23l4.67-2.94c.75-.48,1.68-1.69,1.94-2.54l3.11-10.18c.36-1.18,1.04-3.06,1.51-4.19l3.31-7.95c.46-1.1,1.2-2.9,1.65-4.01l2.07-5.06,3.41-8.33c.52-1.28,1.75-3,2.79-3.9l7.07-6.15c.82-.71,2.02-2.08,2.62-2.98l9.2-13.85c.52-.8.99-2.34.99-3.3v-5.18c0-1.14-.12-3.05-.25-4.19l-.52-4.47c-.18-1.53.41-3.58,1.37-4.77l1.73-2.13c.73-.91,1.85-2.43,2.49-3.41l3.89-5.88c.34-.51.77-1.18,1.2-1.85.4-.64.79-1.28,1.08-1.77l4.45-7.48c.68-1.14,1.99-2.72,2.98-3.6l.53-.48c.56-.49.93-1.65.77-2.37-.2-.91-.51-1.91-.69-2.26-.49-.37-.97-1.39-1.78-8.97-.15-1.4.2-3.51.81-4.79l2.83-6.03c.56-1.18,1.62-2.89,2.42-3.91l.82-1.04c.73-.93,1.86-2.46,2.53-3.43l3.22-4.69c.64-.93,1.63-2.58,2.15-3.59l2.27-4.39c.46-.89.89-2.55.91-3.55l.19-9.03c.02-1.07-.22-2.85-.52-3.88l-4.67-15.72c-.4-1.34-.47-3.46-.16-4.83l2.15-9.62c.23-1.04.34-2.81.22-3.87l-.66-6c-.14-1.35.03-3.42.41-4.72l2.21-7.72c.33-1.16.91-3.04,1.29-4.2l.86-2.61c.15-.47.4-.95.72-1.42.51-.76,1.18-1.46,1.89-1.95.2-.15.42-.28.63-.39l6.94-3.51c1.16-.59,3.05-1.29,4.3-1.61l3.5-.87,4.69-1.18c.51-.12,1.13-.24,1.78-.33.99-.13,2.04-.2,2.83-.18l8.79.21c1.09.03,2.9-.17,3.96-.43l11.9-2.91c.55-.14,1-.77.94-1.33l-.61-5.77c-.17-1.6.62-3.6,1.85-4.64l4.14-3.54c1.12-.95,3.06-1.77,4.52-1.9l4.51-.39s.07,0,.1-.01c1.14-.11,2.97-.37,4.05-.6l3.82-.79,5.01-3.62,2.46,1.83c.61-.33,1.2-.78,1.53-1.18l3.9-4.72c.35-.43.78-1.03,1.17-1.65l-.4-1.27,1.74-1.22,3.36-7.1c.26-.53.63-1.1,1.07-1.62.67-.8,1.5-1.53,2.27-1.96l8.32-4.69c.69-.39,1.44-1.51,1.53-2.3l.66-5.31c.12-1-.05-2.71-.36-3.67l-1.75-5.25c-.54-1.62.01-3.69,1.29-4.82,4.53-4.03,5.61-4.72,6.13-4.84.66-.33,3.25-2.11,5.39-3.64.53-.38.85-1.33.65-1.96l-3.26-10.36-4.19-3h3.25l-.86-2.74c-.33-1.04-1.1-2.69-1.68-3.61l-8.37-13.17c-.7-1.1-1.57-2.93-1.98-4.17l-3.47-10.46c-.5-1.5-.22-3.63.65-4.95l7.26-11.06c.62-.94,1.52-2.6,1.96-3.62l5.93-13.61c.49-1.12,1.36-2.92,1.94-4,4.17-7.78,5.43-9.8,6.16-10.33.4-.49,1.41-2.07,2.67-4.11h0c1.11-1.8,2.39-3.95,3.6-6,.4-.68.47-1.99.14-2.71l-2.6-5.71-6.29-13.84c-.69-1.51-.45-3.64.55-4.97l4.05-5.33c.67-.88,1.63-2.47,2.09-3.47l3.59-7.68c.48-1.02,1.12-2.78,1.42-3.86l2.8-10.3c.34-1.28,1.15-3.15,1.84-4.27l2.27-3.67c.63-1.03,1.67-2.68,2.32-3.7,2.13-3.34,4.47-7.11,4.9-7.98.05-1.27.36-6.69.42-7.86.02-.43.05-.95.07-1.5.05-.98.09-2.04.1-2.8l.11-4.4c0-.09,0-.18,0-.28h0s-2.28-7.11-2.28-7.11l.12-.09-.22-.55c-.46-1.16-1.08-3.08-1.38-4.29l-.19-.75c-.42-1.63.33-3.68,1.69-4.68,0,0,.01,0,.02-.01.04-.03.97-.7,1.97-1.36,1.64-1.08,2.53-1.58,3.3-1.29.7.05,3.47-.18,5.76-.42.85-.09,2.08-.79,2.59-1.48l.46-.62c.73-.98,1.95-2.53,2.74-3.47l1.37-1.64c.89-1.04,2.55-2.33,3.79-2.91l3.25-1.53c1.1-.52,2.92-1.31,4.05-1.75l3.29-1.31c1.58-.63,3.68-.19,4.89,1.02,2.86,2.87,3.4,3.86,3.53,4.29.38.57,2.33,2.47,3.99,3.96.76.69,2.28,1.58,3.24,1.91l.36.12,2.17.76,2.19.76c1.15.4,3,1.1,4.13,1.57,1.65.69,3.74,1.44,4.22,1.48.43,0,1.92.06,3.34.11,1.41.06,2.75.12,2.86.12.69.02,1.62-.53,1.91-1.16l.45-.97c.52-1.11,1.36-2.87,1.87-3.94l2.45-5.09c.51-1.05,1.26-2.79,1.68-3.89l.47-1.23c.54-1.42,1.8-2.91,2.93-3.46l1.54-.75c.07-.04.15-.07.23-.08.16-.05.33-.05.49-.03.03,0,.06.01.09.02.05.01.1.02.15.03.03.01.06.03.1.05.04.02.08.03.12.06.03.02.06.04.09.06.04.02.07.05.11.08.03.03.06.06.09.09.03.03.06.05.08.08.1.13.17.28.22.44.02.09.03.17.03.25l3.37,61.71,3.73,68.28,3.8,69.56,3.65,66.82,3.85,70.62,3.6,65.98,3.39,62.18,3.85,70.39,2.15,39.43,2.56,3.33c.83,1.09,1.7,2.91,1.97,4.14.28,1.24.26,3.26-.05,4.6-.25,1.11-.54,2.45-.6,2.88.08.4.27,1.42.73,4.19.26,1.5-.19,3.58-1.02,4.85l-.94,1.42c-.55.83-1.12,2.42-1.22,3.42l-.05.45-.12,1.19c-.12,1.1-.1,2.95.03,4.04l.09.73c.16,1.28.18,3.3.05,4.59l-.19,1.81c-.11,1.12-.17,2.85-.12,3.79.07,1.33-.64,3.19-1.65,4.34l-1.82,2.09c-.57.65-1.05,2.04-1,2.91l.53,9.63c.06,1.03.48,2.76.91,3.71l1.91,4.22c.42.94,1.44,2.39,2.18,3.12l2.66,2.6c.76.74,2.22,1.75,3.19,2.2l1.85.86c1.37.64,2.85,2.16,3.45,3.54l3.33,7.62c.44,1,1.37,2.59,2.04,3.46.48.63.98,1.28,1.45,1.89.86,1.11,1.61,2.06,1.92,2.42.69.28,2.18.99,5.85,2.76,1.28.61,2.87,2.04,3.63,3.24l.99,1.56c.54.85,1.76,2.08,2.61,2.62l.79.51c1.32.84,2.47,2.65,2.68,4.19l.43,3.09c.18,1.35.06,3.43-.3,4.73l-1.13,4.26c-.3,1.14-.73,3-.94,4.15l-1.98,10.39c-.17.89.07,2.43.49,3.23l1.98,3.7c.49.91,1.61,2.32,2.38,3.01l11.43,10.13c.73.65,2.2,1.36,3.16,1.52l8.87,1.57c.72.12,1.4.48,1.96.98.78.68,1.33,1.63,1.45,2.62l.05.4c.17,1.41-.16,3.52-.77,4.8Z"/><path class="uuid-2e837c3e-cea5-45af-9754-f58a6c82a722" d="m364.77,66.09h-37.36V19.01l2.17.76,2.19.76c1.15.4,3,1.1,4.13,1.57,1.65.69,3.74,1.44,4.22,1.48.43,0,1.92.06,3.34.11,1.41.06,2.75.12,2.86.12.69.02,1.62-.53,1.91-1.16l.45-.97c.52-1.11,1.36-2.87,1.87-3.94l2.45-5.09c.51-1.05,1.26-2.79,1.68-3.89l.47-1.23c.54-1.42,1.8-2.91,2.93-3.46l1.54-.75c.07-.04.15-.07.23-.08.16-.05.33-.05.49-.03.03,0,.06.01.09.02.05.01.1.02.15.03.03.01.06.03.1.05.04.02.08.03.12.06.03.02.06.04.09.06.04.02.07.05.11.08.03.03.06.06.09.09.03.03.06.05.08.08.1.13.17.28.22.44.02.09.03.17.03.25l3.37,61.71Z"/><polygon class="uuid-2e837c3e-cea5-45af-9754-f58a6c82a722" points="372.29 203.94 327.4 203.94 327.4 134.38 368.5 134.38 372.29 203.94"/><polygon class="uuid-2e837c3e-cea5-45af-9754-f58a6c82a722" points="379.8 341.38 328.7 341.38 328.27 270.75 375.94 270.75 379.8 341.38"/><polygon class="uuid-2e837c3e-cea5-45af-9754-f58a6c82a722" points="386.8 469.53 328.7 469.53 326.39 407.35 383.4 407.35 386.8 469.53"/><path class="uuid-2e837c3e-cea5-45af-9754-f58a6c82a722" d="m397.42,598.5c.26,1.5-.19,3.58-1.02,4.85l-.94,1.42c-.55.83-1.12,2.42-1.22,3.42l-.05.45H48.64l-2.13-6.1c-.5-1.41-.46-3.54.09-4.93l2.82-7.23c.4-1.01.83-2.78.94-3.86l.57-5.48c.16-1.57,1.3-3.39,2.65-4.23l4.67-2.94c.75-.48,1.68-1.69,1.94-2.54l3.11-10.18c.36-1.18,1.04-3.06,1.51-4.19l3.31-7.95c.46-1.1,1.2-2.9,1.65-4.01l2.07-5.06h318.8l2.15,39.43,2.56,3.33c.83,1.09,1.7,2.91,1.97,4.14.28,1.24.26,3.26-.05,4.6-.25,1.11-.54,2.45-.6,2.88.08.4.27,1.42.73,4.19Z"/><path class="uuid-2e837c3e-cea5-45af-9754-f58a6c82a722" d="m35.44,734.29c.05-1-.25-2.7-.65-3.63l-2.8-6.62c-.56-1.31-.82-3.42-.61-4.82l2.31-15.56c.18-1.2.51-3.15.75-4.34l2.66-13.36c.26-1.27.85-3.18,1.35-4.37l1.96-4.62h372.55c.86,1.11,1.61,2.06,1.92,2.42.69.28,2.18.99,5.85,2.76,1.28.61,2.87,2.04,3.63,3.24l.99,1.56c.54.85,1.76,2.08,2.61,2.62l.79.51c1.32.84,2.47,2.65,2.68,4.19l.43,3.09c.18,1.35.06,3.43-.3,4.73l-1.13,4.26c-.3,1.14-.73,3-.94,4.15l-1.98,10.39c-.17.89.07,2.43.49,3.23l1.98,3.7c.49.91,1.61,2.32,2.38,3.01l11.43,10.13c.73.65,2.2,1.36,3.16,1.52l8.87,1.57c.72.12,1.4.48,1.96.98H33.6l.28-.33c.59-.69,1.17-2.16,1.21-3.08l.35-7.33Z"/><path class="uuid-2e837c3e-cea5-45af-9754-f58a6c82a722" d="m404.33,810.4c-.19.05-.36.11-.51.18l-11.47,5.04c-1.12.49-2.98,1.21-4.14,1.61l-8.32,2.83c-.84.29-1.98,1.25-2.4,2.03l-1.29,2.39c-.53.98-1.24,2.69-1.56,3.75l-1.43,4.78c-.53,1.77-2.42,2.85-4.22,2.41l-10.8-2.68c-.94-.23-2.57-.17-3.48.14l-3.74,1.25c-.96.32-2.46,1.21-3.21,1.9l-1.71,1.57c-.66.61-1.37,1.98-1.49,2.87l-.98,7.42c-.14,1.11-.21,2.98-.14,4.09l.24,4.11c.06.98-.3,1.85-.99,2.39-.69.55-1.62.69-2.56.4l-2.37-.71c-1.07-.33-2.91-.72-4.02-.86-1.28-.15-2.83-.31-3.34-.31-.37.17-1.36.67-2.19,1.11-.89.46-2.17,1.58-2.75,2.39l-.08.11c-.7.99-1.9,2.57-2.65,3.52l-7.03,8.92s-.03.03-.05.05c-.04.04-.08.08-.13.12-.02.02-.05.05-.07.06-.04.04-.1.06-.14.09-.03.01-.06.03-.08.04-.05.03-.11.05-.18.06-.02,0-.04.02-.07.02-.09.02-.17.03-.26.03h-.05l-284.53-10.32s-.02,0-.03,0c-.06,0-.12-.01-.19-.02-.02,0-.03,0-.05-.01-.07-.02-.14-.04-.2-.07-.02,0-.03-.02-.05-.02-.05-.02-.1-.06-.15-.08-.02-.02-.03-.02-.05-.04-.05-.04-.11-.09-.16-.14h0c-.04-.06-.09-.11-.13-.17-.01-.02-.02-.03-.03-.05-.02-.02-.03-.04-.04-.06l-2.89-5.68c-.51-.99-1.52-2.54-2.21-3.41l-.22-.26c-.62-.78-1.97-1.81-2.89-2.21-.56-.24-3.33-1.47-3.65-1.63-.99-.49-3.37-4.91-3.55-5.4-.18-.46-.38-1.15-.6-1.89-.27-.91-.6-2.04-.83-2.5-.46-.93-3.46-7.04-3.58-7.3-.57-1.16-1.24-3.08-1.53-4.34l-1.77-7.86c-.31-1.38-.19-3.51.27-4.85l1.66-4.81h397.02Z"/><path class="uuid-2e837c3e-cea5-45af-9754-f58a6c82a722" d="m431.84,810.4c-.48.77-1.08,1.46-1.71,1.92l-4.68,3.43c-1.36,1-3.55,1.08-4.98.18l-6.15-3.89c-.86-.55-2.5-1.16-3.51-1.33l-1.96-.31h22.99Z"/><path class="uuid-08c4f25f-45e4-4a8f-980a-30b78ecda0c5" d="m329.58,19.77v449.77H107.82c.4-.64.79-1.28,1.08-1.77l4.45-7.48c.68-1.14,1.99-2.72,2.98-3.6l.53-.48c.56-.49.93-1.65.77-2.37-.2-.91-.51-1.91-.69-2.26-.49-.37-.97-1.39-1.78-8.97-.15-1.4.2-3.51.81-4.79l2.83-6.03c.56-1.18,1.62-2.89,2.42-3.91l.82-1.04c.73-.93,1.86-2.46,2.53-3.43l3.22-4.69c.64-.93,1.63-2.58,2.15-3.59l2.27-4.39c.46-.89.89-2.55.91-3.55l.19-9.03c.02-1.07-.22-2.85-.52-3.88l-4.67-15.72c-.4-1.34-.47-3.46-.16-4.83l2.15-9.62c.23-1.04.34-2.81.22-3.87l-.66-6c-.14-1.35.03-3.42.41-4.72l2.21-7.72c.33-1.16.91-3.04,1.29-4.2l.86-2.61c.15-.47.4-.95.72-1.42.51-.76,1.18-1.46,1.89-1.95.2-.15.42-.28.63-.39l6.94-3.51c1.16-.59,3.05-1.29,4.3-1.61l3.5-.87,4.69-1.18c.51-.12,1.13-.24,1.78-.33.99-.13,2.04-.2,2.83-.18l8.79.21c1.09.03,2.9-.17,3.96-.43l11.9-2.91c.55-.14,1-.77.94-1.33l-.61-5.77c-.17-1.6.62-3.6,1.85-4.64l4.14-3.54c1.12-.95,3.06-1.77,4.52-1.9l4.51-.39s.07,0,.1-.01c1.14-.11,2.97-.37,4.05-.6l3.82-.79,5.01-3.62,2.46,1.83c.61-.33,1.2-.78,1.53-1.18l3.9-4.72c.35-.43.78-1.03,1.17-1.65l-.4-1.27,1.74-1.22,3.36-7.1c.26-.53.63-1.1,1.07-1.62.67-.8,1.5-1.53,2.27-1.96l8.32-4.69c.69-.39,1.44-1.51,1.53-2.3l.66-5.31c.12-1-.05-2.71-.36-3.67l-1.75-5.25c-.54-1.62.01-3.69,1.29-4.82,4.53-4.03,5.61-4.72,6.13-4.84.66-.33,3.25-2.11,5.39-3.64.53-.38.85-1.33.65-1.96l-3.26-10.36-4.19-3h3.25l-.86-2.74c-.33-1.04-1.1-2.69-1.68-3.61l-8.37-13.17c-.7-1.1-1.57-2.93-1.98-4.17l-3.47-10.46c-.5-1.5-.22-3.63.65-4.95l7.26-11.06c.62-.94,1.52-2.6,1.96-3.62l5.93-13.61c.49-1.12,1.36-2.92,1.94-4,4.17-7.78,5.43-9.8,6.16-10.33.4-.49,1.41-2.07,2.67-4.11h0c1.11-1.8,2.39-3.95,3.6-6,.4-.68.47-1.99.14-2.71l-2.6-5.71-6.29-13.84c-.69-1.51-.45-3.64.55-4.97l4.05-5.33c.67-.88,1.63-2.47,2.09-3.47l3.59-7.68c.48-1.02,1.12-2.78,1.42-3.86l2.8-10.3c.34-1.28,1.15-3.15,1.84-4.27l2.27-3.67c.63-1.03,1.67-2.68,2.32-3.7,2.13-3.34,4.47-7.11,4.9-7.98.05-1.27.36-6.69.42-7.86.02-.43.05-.95.07-1.5.05-.98.09-2.04.1-2.8l.11-4.4c0-.09,0-.18,0-.28h0s-2.28-7.11-2.28-7.11l.12-.09-.22-.55c-.46-1.16-1.08-3.08-1.38-4.29l-.19-.75c-.42-1.63.33-3.68,1.69-4.68,0,0,.01,0,.02-.01.04-.03.97-.7,1.97-1.36,1.64-1.08,2.53-1.58,3.3-1.29.7.05,3.47-.18,5.76-.42.85-.09,2.08-.79,2.59-1.48l.46-.62c.73-.98,1.95-2.53,2.74-3.47l1.37-1.64c.89-1.04,2.55-2.33,3.79-2.91l3.25-1.53c1.1-.52,2.92-1.31,4.05-1.75l3.29-1.31c1.58-.63,3.68-.19,4.89,1.02,2.86,2.87,3.4,3.86,3.53,4.29.38.57,2.33,2.47,3.99,3.96.76.69,2.28,1.58,3.24,1.91l.36.12,2.17.76Z"/><path class="uuid-f7e84821-acf1-4e54-9b00-d5676e15ba64" d="m284.29,53l-3.43-2.56c.05-.98.09-2.04.1-2.8l.11-4.4c0-.09,0-.18,0-.28l3.22,10.04Z"/><path class="uuid-f7e84821-acf1-4e54-9b00-d5676e15ba64" d="m293.35,25.5l-14.45,10.26-.22-.55c-.46-1.16-1.08-3.08-1.38-4.29l-.19-.75c-.42-1.63.33-3.68,1.69-4.68h14.55Z"/><path class="uuid-f7e84821-acf1-4e54-9b00-d5676e15ba64" d="m278.78,138.83l5.51,17.09-14.18-10.54-14.17,10.54,3.76-12.62h0c1.11-1.8,2.39-3.95,3.6-6,.4-.68.47-1.99.14-2.71l-2.6-5.71h3.34l5.93-17.32,5.49,17.32h17.76l-14.57,9.95Z"/><polygon class="uuid-f7e84821-acf1-4e54-9b00-d5676e15ba64" points="132.68 432.52 150.27 432.52 156.17 415.37 161.24 432.52 178.98 432.52 164.37 442.88 169.87 459.56 156.17 449.04 141.56 459.56 146.83 442.88 132.68 432.52"/><polygon class="uuid-f7e84821-acf1-4e54-9b00-d5676e15ba64" points="246.25 432.52 264.17 432.52 270.1 415.37 275.59 432.52 293.35 432.52 278.79 442.88 284.29 459.56 270.1 449.04 255.94 459.56 261.02 442.88 246.25 432.52"/><polygon class="uuid-f7e84821-acf1-4e54-9b00-d5676e15ba64" points="246.25 331.63 264.17 331.63 270.1 314.36 275.59 331.63 293.35 331.63 278.79 342.65 284.29 359.12 270.1 348.8 255.94 359.12 261.02 342.65 246.25 331.63"/><path class="uuid-f7e84821-acf1-4e54-9b00-d5676e15ba64" d="m164.37,342.65l5.5,16.47-13.7-10.33-14.6,10.33,5.27-16.47-11.64-9.07c.51-.76,1.18-1.46,1.89-1.95h13.19l2.18-6.38,4.69-1.18c.51-.12,1.13-.24,1.78-.33l2.31,7.88h17.75l-14.62,11.02Z"/><polygon class="uuid-f7e84821-acf1-4e54-9b00-d5676e15ba64" points="190.78 381.15 209.22 381.15 214.73 363.56 219.81 381.15 237.57 381.15 223.4 391.73 228.9 408.61 214.73 398.09 200.12 408.61 205.62 391.73 190.78 381.15"/><path class="uuid-f7e84821-acf1-4e54-9b00-d5676e15ba64" d="m209.72,301.48l-9.6,6.93,1.74-5.54c1.14-.11,2.97-.37,4.05-.6l3.82-.79Z"/><path class="uuid-f7e84821-acf1-4e54-9b00-d5676e15ba64" d="m228.9,308.4l-11.71-8.71c.61-.33,1.2-.78,1.53-1.18l3.9-4.72c.35-.43.78-1.03,1.17-1.65l5.1,16.27Z"/><path class="uuid-f7e84821-acf1-4e54-9b00-d5676e15ba64" d="m237.57,280.92l-12.43,8.72,3.36-7.1c.26-.53.63-1.1,1.07-1.62h8Z"/><polygon class="uuid-f7e84821-acf1-4e54-9b00-d5676e15ba64" points="278.78 239.7 284.29 256.59 270.1 246.48 255.94 256.59 261.02 239.7 250.44 232.13 246.25 229.12 264.17 229.12 270.1 211.8 275.59 229.12 293.35 229.12 278.78 239.7"/><path class="uuid-a9cc6d60-4b22-49c7-a2b4-b6abc492e9d2" d="m312.72,875.22h-.05s-.04,0-.06,0l-284.53-10.32c-.06,0-.11,0-.17-.02-.11-.01-.22-.03-.33-.05-.04,0-.12-.03-.15-.03-.12-.03-.3-.09-.49-.18-.01,0-.02-.01-.04-.02-.13-.06-.25-.13-.36-.21-.02-.02-.04-.03-.07-.05-.03-.02-.05-.04-.08-.06-.08-.06-.18-.15-.29-.25-.04-.04-.08-.07-.11-.11-.09-.1-.17-.21-.25-.32-.04-.05-.07-.1-.09-.15-.04-.06-.07-.11-.09-.17l-2.89-5.67c-.45-.88-1.39-2.33-2.02-3.11l-.21-.25c-.46-.57-1.6-1.44-2.26-1.74-.37-.16-3.33-1.47-3.72-1.66-1.85-.92-4.37-6.25-4.39-6.31-.2-.53-.42-1.26-.64-2.03l-.02-.08c-.19-.64-.54-1.83-.69-2.13-.46-.92-3.45-7.02-3.59-7.31-.63-1.28-1.34-3.31-1.66-4.72l-1.76-7.85c-.38-1.7-.25-4.13.32-5.78l2.57-7.45c.46-1.34,1.39-3.27,2.16-4.5.91-1.43,1.66-2.77,1.96-3.35-.08-1.26-.57-5.44-1.28-10.57-.32-2.32.87-4.93,2.83-6.2l6.57-4.28c.96-.63,2.55-1.69,3.54-2.37l2.4-1.65c.32-.22.82-1.02.89-1.41l.96-6.18c.15-1,.26-2.75.22-3.75l-.34-8.76c-.08-1.95.76-4.36,2.03-5.85l4.04-4.74c.35-.41.79-1.52.81-2.05l.35-7.33c.04-.76-.22-2.19-.51-2.88l-2.81-6.63c-.68-1.6-.98-4.01-.73-5.73l2.31-15.56c.19-1.29.54-3.27.77-4.43l2.66-13.35c.28-1.39.9-3.41,1.45-4.71l3.01-7.09c.35-.81.73-2.36.8-3.24.33-4.28.54-7.34.56-8.04-.17-.9-.46-3.09-1.47-11.15-.2-1.57-.02-3.89.4-5.41l5.29-19.02c.28-1.02.66-2.83.81-3.87l1.43-9.95c.1-.71-.04-2.13-.27-2.8l-2.54-7.25c-.63-1.81-.59-4.33.11-6.12l2.83-7.23c.34-.86.73-2.5.83-3.42l.57-5.48c.22-2.08,1.66-4.39,3.43-5.5l4.67-2.93c.41-.26,1.08-1.14,1.22-1.6l3.1-10.18c.38-1.25,1.07-3.16,1.57-4.36l3.31-7.95c.46-1.1,1.2-2.9,1.65-4l5.48-13.4c.61-1.51,2.01-3.46,3.25-4.54l7.07-6.15c.7-.61,1.81-1.87,2.32-2.64l9.19-13.84c.34-.52.71-1.73.71-2.35v-5.19c0-1.06-.12-2.92-.24-3.99l-.52-4.48c-.24-1.99.48-4.47,1.74-6.04l1.73-2.14c.72-.89,1.79-2.36,2.4-3.28l3.9-5.88c.65-.98,1.66-2.58,2.24-3.55l4.45-7.47c.76-1.28,2.18-3,3.31-4l.54-.48c.11-.12.25-.57.23-.76-.14-.65-.33-1.27-.45-1.6-.8-.87-1.29-2.69-2.04-9.8-.19-1.72.22-4.12.96-5.69l2.84-6.03c.62-1.31,1.75-3.13,2.63-4.24l.82-1.04c.71-.89,1.81-2.39,2.46-3.34l3.23-4.69c.6-.87,1.55-2.46,2.04-3.4l2.27-4.39c.34-.66.7-2.08.71-2.81l.19-9.02c.02-.9-.2-2.5-.45-3.35l-4.67-15.73c-.48-1.63-.56-4.02-.19-5.68l2.15-9.62c.19-.86.28-2.44.19-3.32l-.65-6c-.17-1.57.03-3.88.46-5.38l2.21-7.72c.33-1.16.92-3.07,1.31-4.26l.86-2.61c.62-1.89,2.3-3.85,4.08-4.75l6.94-3.51c1.27-.65,3.28-1.39,4.66-1.74l8.2-2.05c1.41-.35,3.6-.6,5.06-.56l8.97.21c.96,0,2.49-.18,3.34-.38l11.51-2.81-.57-5.36c-.23-2.15.8-4.72,2.44-6.12l4.14-3.54c1.37-1.17,3.67-2.13,5.47-2.3l4.52-.39c1.05-.09,2.9-.36,3.95-.58l10.02-2.07c.51-.11,1.51-.7,1.84-1.1l3.91-4.72c.6-.72,1.51-2.16,1.92-3.02l3.72-7.86c.78-1.66,2.44-3.44,4.04-4.34l8.31-4.69c.23-.14.64-.75.68-1.02l.66-5.31c.09-.76-.05-2.2-.29-2.92l-1.75-5.25c-.76-2.26-.01-5.05,1.77-6.64,4.62-4.11,5.81-4.89,6.62-5.15.65-.38,2.7-1.76,4.98-3.4.03-.05.05-.13.06-.18l-5.04-16.03c-.28-.89-.99-2.42-1.49-3.21l-8.37-13.17c-.77-1.21-1.7-3.17-2.16-4.55l-3.47-10.46c-.66-1.97-.3-4.68.84-6.42l7.26-11.06c.56-.85,1.41-2.43,1.82-3.37l5.93-13.61c.5-1.16,1.4-3,2-4.12,4.25-7.93,5.47-9.89,6.44-10.72.78-1.06,3.39-5.3,6.02-9.77.12-.23.15-.9.06-1.14l-8.9-19.55c-.94-2.07-.63-4.89.74-6.71l4.05-5.33c.6-.79,1.49-2.26,1.91-3.16l3.59-7.68c.43-.92,1.04-2.59,1.32-3.59l2.8-10.3c.38-1.42,1.26-3.45,2.04-4.72l2.27-3.68c.64-1.03,1.69-2.71,2.34-3.72,2.07-3.23,4.03-6.4,4.65-7.52.07-1.61.3-5.69.4-7.49.07-1.21.14-3.12.17-4.25l.12-4.4c.02-.79-.24-2.29-.54-3.02l-1.73-4.35c-.49-1.24-1.13-3.22-1.45-4.5l-.19-.75c-.58-2.3.44-5.09,2.36-6.48,0,0,.04-.03.05-.03.88-.63,1.57-1.09,1.99-1.37,1.51-.99,2.59-1.65,3.78-1.65.24,0,.48.03.72.09.84,0,3.1-.18,5.32-.42.37-.04,1.17-.5,1.4-.8l.46-.62c.75-1.01,2.01-2.6,2.8-3.55l1.37-1.64c1.04-1.23,2.91-2.68,4.37-3.36l3.25-1.53c1.08-.51,2.94-1.32,4.15-1.8l3.28-1.31c.68-.27,1.42-.41,2.2-.41,1.71,0,3.4.67,4.53,1.8,2.66,2.67,3.5,3.88,3.83,4.65.43.5,1.89,1.97,3.63,3.53.59.53,1.91,1.31,2.66,1.57l4.73,1.64c1.14.39,3.03,1.11,4.22,1.6,1.7.7,3.27,1.25,3.72,1.35.9.01,3.71.13,5.97.23h.1c.1-.02.29-.13.36-.21l.44-.93c.52-1.11,1.36-2.88,1.88-3.96l2.45-5.08c.5-1.04,1.23-2.72,1.62-3.75l.47-1.23c.7-1.84,2.26-3.64,3.78-4.38l1.54-.75c.16-.08.35-.15.55-.2.38-.1.77-.12,1.16-.07.04,0,.07.01.11.02.03,0,.11.03.14.03.12.03.2.05.27.07.04.01.07.03.11.04.05.02.11.05.17.07.11.05.2.1.3.15.07.04.14.09.2.14,0,0,.02.01.03.02.07.05.16.11.24.19.07.06.14.14.21.22.04.04.1.1.15.17.25.32.42.67.52,1.04.06.22.09.42.09.63l31.37,574.43,2.24,2.92c.98,1.27,1.96,3.34,2.29,4.8.33,1.46.31,3.76-.06,5.35-.23,1.01-.44,1.99-.52,2.48.14.72.36,2.04.68,3.93.33,1.94-.2,4.43-1.29,6.07l-.94,1.42c-.4.6-.87,1.93-.95,2.65l-.17,1.65c-.1.97-.09,2.68.03,3.65l.09.73c.17,1.41.2,3.55.05,4.97l-.18,1.81c-.1,1.03-.16,2.68-.12,3.54.09,1.77-.76,4.05-2.06,5.54l-1.83,2.09c-.28.32-.61,1.27-.58,1.7l.53,9.63c.05.82.42,2.36.76,3.1l1.91,4.22c.33.74,1.23,2.03,1.82,2.6l2.66,2.6c.62.61,1.92,1.5,2.71,1.87l1.86.87c1.75.82,3.52,2.62,4.29,4.39l3.33,7.62c.38.87,1.25,2.35,1.83,3.11,1.27,1.66,2.49,3.22,3.07,3.93.81.36,2.31,1.07,5.55,2.64,1.57.76,3.39,2.38,4.33,3.86l.98,1.55c.41.65,1.45,1.69,2.09,2.1l.79.51c1.75,1.12,3.17,3.34,3.45,5.4l.42,3.09c.21,1.57.07,3.89-.34,5.41l-1.13,4.26c-.3,1.12-.71,2.92-.92,4.03l-1.98,10.39c-.1.51.08,1.65.32,2.11l1.98,3.7c.39.73,1.39,1.99,2.01,2.54l11.43,10.12c.49.43,1.68,1.01,2.32,1.12l8.87,1.57c2.44.43,4.51,2.61,4.81,5.08l.05.4c.21,1.73-.18,4.14-.92,5.72l-5.06,10.78c-.59,1.24-1.65,3.08-2.43,4.18l-4.21,5.98c-.54.77-1.33,2.27-1.66,3.15l-3.03,8.1c-.47,1.25-1.3,3.13-1.91,4.29l-5.08,9.8c-.42.81-.97,2.38-1.15,3.28l-1.06,5.35c-.38,1.92-1.75,4.06-3.32,5.21l-4.67,3.43c-1,.73-2.29,1.14-3.65,1.14-1.18,0-2.34-.32-3.25-.9l-6.15-3.89c-.67-.42-2.09-.96-2.87-1.09l-3.56-.57c-.08-.01-.23-.03-.45-.03-.77,0-1.64.18-2.03.35l-11.46,5.03c-1.17.51-3.09,1.26-4.28,1.66l-8.31,2.83c-.43.15-1.23.83-1.45,1.23l-1.3,2.39c-.47.87-1.14,2.48-1.42,3.42l-1.42,4.78c-.66,2.19-2.72,3.73-5.03,3.73-.41,0-.83-.05-1.23-.15l-10.81-2.68c-.22-.06-.59-.09-.98-.09-.68,0-1.27.1-1.56.19l-3.74,1.25c-.74.25-2.03,1.01-2.6,1.53l-1.72,1.57c-.37.34-.89,1.34-.95,1.84l-.97,7.42c-.13.99-.19,2.75-.13,3.77l.25,4.1c.09,1.54-.5,2.94-1.63,3.83-1.12.88-2.64,1.14-4.11.69l-2.37-.72c-.98-.3-2.72-.67-3.74-.79-1.06-.13-2.16-.24-2.78-.28-.45.22-1.13.57-1.76.9-.64.34-1.73,1.29-2.15,1.88l-.07.1c-.72,1-1.92,2.61-2.7,3.6l-7.03,8.92c-.04.06-.09.11-.15.16,0,0,0,0,0,0-.08.08-.16.16-.25.24-.06.05-.12.1-.18.14-.13.1-.25.16-.34.21-.05.03-.11.06-.16.08-.13.06-.26.11-.41.15-.04.01-.08.02-.12.04-.04.01-.09.02-.13.03-.21.04-.39.06-.57.06Zm-284.24-13.71l284.02,10.3,6.89-8.74c.75-.95,1.92-2.5,2.6-3.45l.07-.1c.73-1.03,2.24-2.34,3.35-2.93.78-.41,1.83-.95,2.25-1.15.23-.11.48-.17.75-.16.72,0,2.62.22,3.53.33,1.22.15,3.15.56,4.31.91l2.37.72c.4.12.76.08,1.01-.11.24-.19.37-.54.34-.95l-.25-4.11c-.07-1.23,0-3.21.16-4.41l.97-7.42c.17-1.28,1.08-3.02,2.02-3.9l1.72-1.57c.92-.84,2.63-1.86,3.82-2.26l3.74-1.25c.7-.23,1.66-.37,2.63-.37.47,0,1.16.03,1.79.19l10.81,2.68c.9.22,1.91-.36,2.18-1.25l1.42-4.78c.35-1.17,1.11-3,1.69-4.08l1.3-2.39c.63-1.16,2.1-2.4,3.35-2.82l8.32-2.83c1.11-.38,2.91-1.08,4.01-1.56l11.46-5.03c.88-.39,2.22-.63,3.4-.63.36,0,.7.02.99.07l3.56.57c1.24.2,3.1.9,4.15,1.57l6.15,3.89c.81.51,2.3.46,3.06-.11l4.68-3.44c.87-.64,1.78-2.07,2-3.13l1.06-5.35c.25-1.22.9-3.09,1.47-4.18l5.08-9.8c.53-1.02,1.33-2.81,1.74-3.91l3.03-8.1c.43-1.15,1.35-2.9,2.06-3.91l4.21-5.98c.66-.94,1.63-2.62,2.13-3.67l5.06-10.78c.47-1,.75-2.77.62-3.87l-.05-.4c-.12-.98-1.05-1.96-2.02-2.13l-8.87-1.57c-1.27-.22-3.03-1.07-3.99-1.93l-11.43-10.12c-.93-.82-2.17-2.39-2.75-3.48l-1.98-3.7c-.61-1.13-.91-3.08-.67-4.35l1.98-10.4c.22-1.17.66-3.08.97-4.27l1.13-4.26c.29-1.08.41-2.95.25-4.07l-.42-3.09c-.14-1.05-1.02-2.42-1.91-2.99l-.79-.51c-1.05-.67-2.45-2.08-3.13-3.14l-.99-1.56c-.59-.93-1.93-2.13-2.93-2.61-3.74-1.81-5.14-2.47-5.76-2.73-.24-.1-.46-.26-.63-.46-.54-.62-2.17-2.71-3.45-4.39-.75-.98-1.75-2.69-2.24-3.81l-3.33-7.62c-.43-.99-1.63-2.22-2.61-2.67l-1.85-.87c-1.14-.53-2.74-1.64-3.65-2.52l-2.66-2.6c-.9-.88-2.04-2.51-2.55-3.64l-1.9-4.22c-.51-1.13-.98-3.06-1.05-4.31l-.53-9.63c-.08-1.32.55-3.14,1.42-4.13l1.82-2.08c.78-.89,1.26-2.34,1.22-3.13-.05-1.03,0-2.85.13-4.06l.18-1.8c.12-1.16.1-3.05-.05-4.21l-.09-.73c-.15-1.22-.17-3.21-.04-4.42l.17-1.65c.13-1.26.8-3.13,1.5-4.18l.94-1.42c.59-.9.94-2.56.77-3.62-.46-2.7-.65-3.74-.73-4.14-.04-.18-.04-.37-.02-.56.09-.69.54-2.65.62-3.04.25-1.1.28-2.86.05-3.84-.22-1-.99-2.59-1.67-3.48l-2.56-3.34c-.21-.27-.33-.6-.35-.94L357.74,5.16l-.91.45c-.67.33-1.66,1.42-2.09,2.54l-.47,1.23c-.42,1.11-1.2,2.91-1.73,4.02l-2.45,5.09c-.52,1.06-1.35,2.82-1.86,3.92l-.45.97c-.56,1.2-2.06,2.14-3.41,2.14-.02,0-.09,0-.11,0h-.15c-3.32-.15-5.49-.23-5.97-.23-.05,0-.1,0-.15,0-1.03-.09-4.35-1.45-4.72-1.6-1.13-.47-2.94-1.16-4.03-1.53l-4.73-1.64c-1.18-.41-2.9-1.42-3.82-2.26-.03-.03-3.51-3.16-4.26-4.27-.1-.14-.17-.3-.22-.46-.02-.06-.38-.84-3.11-3.58-.49-.49-1.3-.8-2.11-.8-.34,0-.67.06-.94.17l-3.28,1.31c-1.15.46-2.93,1.23-3.95,1.71l-3.25,1.53c-1.01.48-2.48,1.61-3.21,2.47l-1.37,1.64c-.76.9-1.96,2.42-2.67,3.39l-.46.62c-.8,1.07-2.45,2.02-3.78,2.16-2,.21-4.64.44-5.72.44-.13,0-.24,0-.33,0-.13,0-.26-.03-.39-.07-.37.09-1.45.8-1.87,1.08-.4.26-1.04.69-1.87,1.29,0,0-.05.04-.06.04-.78.56-1.27,1.92-1.03,2.88l.19.75c.28,1.12.88,2.98,1.31,4.07l1.73,4.34c.46,1.15.81,3.12.78,4.37l-.12,4.39c-.03,1.16-.11,3.11-.18,4.35-.11,1.97-.37,6.66-.42,7.83,0,.24-.07.47-.17.68-.54,1.09-3.28,5.47-5,8.15-.64,1-1.68,2.65-2.3,3.67l-2.27,3.68c-.61.99-1.35,2.71-1.65,3.82l-2.8,10.3c-.32,1.19-1,3.05-1.52,4.14l-3.59,7.68c-.52,1.11-1.55,2.81-2.28,3.78l-4.05,5.33c-.62.82-.79,2.3-.36,3.23l8.9,19.56c.55,1.21.45,3.13-.22,4.27-2.06,3.51-5.47,9.16-6.41,10.32-.1.12-.21.23-.33.32-.77.64-4.07,6.79-5.65,9.74-.56,1.05-1.4,2.79-1.88,3.87l-5.93,13.61c-.49,1.12-1.43,2.86-2.09,3.87l-7.26,11.07c-.58.88-.79,2.48-.46,3.48l3.47,10.46c.37,1.11,1.18,2.82,1.8,3.79l8.37,13.17c.66,1.04,1.5,2.84,1.87,4.02l5.06,16.1c.41,1.32-.16,3.05-1.28,3.85-1.78,1.28-4.75,3.34-5.61,3.78-.11.06-.23.1-.34.13-.32.14-1.45.93-5.43,4.46-.77.68-1.13,2.03-.8,3.01l1.75,5.24c.4,1.19.6,3.17.44,4.42l-.66,5.31c-.16,1.31-1.23,2.92-2.39,3.57l-8.31,4.69c-.98.55-2.16,1.81-2.63,2.83l-3.72,7.87c-.53,1.12-1.59,2.79-2.37,3.73l-3.91,4.72c-.82.99-2.51,2.01-3.77,2.27l-10.02,2.07c-1.2.25-3.14.53-4.34.64l-4.51.39c-1.11.1-2.71.77-3.56,1.49l-4.14,3.54c-.8.68-1.37,2.13-1.26,3.17l.61,5.76c.15,1.4-.84,2.83-2.23,3.17l-11.9,2.9c-1.2.29-3.17.51-4.41.48l-9-.21c-1.17,0-2.9.2-3.95.46l-8.2,2.05c-1.13.28-2.9.94-3.95,1.47l-6.94,3.51c-.96.48-2.05,1.76-2.39,2.77l-.86,2.61c-.38,1.15-.95,3-1.27,4.13l-2.22,7.72c-.31,1.08-.47,2.95-.35,4.07l.65,6c.14,1.25.03,3.2-.25,4.43l-2.15,9.61c-.24,1.09-.18,2.91.14,3.97l4.67,15.72c.36,1.19.62,3.12.59,4.4l-.19,9.02c-.03,1.25-.52,3.18-1.1,4.3l-2.27,4.39c-.56,1.08-1.57,2.78-2.26,3.77l-3.23,4.69c-.69,1-1.85,2.58-2.59,3.52l-.83,1.04c-.72.91-1.71,2.51-2.22,3.58l-2.83,6.03c-.47,1-.77,2.78-.65,3.88.62,5.85,1.03,7.47,1.23,7.9.14.13.27.29.36.46.31.58.66,1.8.85,2.69.29,1.34-.28,3.1-1.31,4.01l-.54.48c-.87.77-2.05,2.21-2.64,3.2l-4.45,7.48c-.6,1.01-1.65,2.67-2.33,3.69l-3.89,5.88c-.65.99-1.82,2.58-2.59,3.54l-1.73,2.14c-.67.83-1.13,2.44-1.01,3.5l.52,4.48c.14,1.22.26,3.18.26,4.38v5.18c.01,1.29-.55,3.15-1.27,4.24l-9.2,13.85c-.68,1.03-2,2.52-2.92,3.33l-7.06,6.15c-.85.74-1.92,2.23-2.33,3.26l-5.48,13.4c-.45,1.11-1.2,2.91-1.66,4.02l-3.31,7.95c-.46,1.09-1.11,2.9-1.46,4.04l-3.1,10.18c-.38,1.24-1.58,2.8-2.67,3.49l-4.67,2.93c-.89.56-1.74,1.92-1.85,2.97l-.57,5.48c-.13,1.23-.6,3.15-1.05,4.3l-2.83,7.23c-.4,1.01-.43,2.73-.07,3.75l2.54,7.25c.41,1.18.61,3.16.43,4.41l-1.43,9.95c-.17,1.19-.58,3.12-.9,4.3l-5.29,19.03c-.3,1.08-.44,2.95-.3,4.07.93,7.4,1.3,10.22,1.46,11.05,0,.02,0,.03.01.05.02.09.03.15.04.19.1.36.07.72-.05,1.04-.11,2.15-.48,6.91-.53,7.55-.1,1.26-.56,3.15-1.06,4.31l-3.01,7.08c-.46,1.08-1.02,2.89-1.25,4.04l-2.66,13.36c-.22,1.11-.55,3.02-.74,4.26l-2.31,15.56c-.16,1.1.06,2.88.49,3.9l2.8,6.62c.49,1.15.84,3.11.78,4.37l-.35,7.33c-.06,1.28-.79,3.12-1.62,4.1l-4.04,4.74c-.7.82-1.26,2.43-1.21,3.5l.34,8.76c.05,1.22-.07,3.19-.25,4.4l-.96,6.18c-.21,1.32-1.23,2.94-2.32,3.69l-2.39,1.65c-1.01.7-2.64,1.78-3.62,2.42l-6.57,4.28c-.87.57-1.46,1.86-1.32,2.89.46,3.38,1.34,10.12,1.32,11.38,0,.18-.03.37-.1.54-.37,1.07-2.38,4.24-2.4,4.27-.63,1-1.44,2.7-1.82,3.79l-2.57,7.45c-.36,1.04-.46,2.84-.22,3.92l1.76,7.85c.26,1.14.88,2.92,1.4,3.97.15.3,3.12,6.37,3.58,7.29.27.53.55,1.45.91,2.69l.03.09c.2.68.4,1.37.55,1.76.29.67,2.12,3.89,2.81,4.52.53.24,2.85,1.27,3.49,1.55,1.16.51,2.74,1.72,3.53,2.7l.2.25c.78.97,1.86,2.63,2.41,3.71l2.77,5.44Z"/></g></g></svg>