<?xml version="1.0" encoding="UTF-8"?><svg id="uuid-9ba5c7af-f280-4a38-b2c7-892aaa170f03" xmlns="http://www.w3.org/2000/svg" viewBox="0 0 454.12 870.31"><defs><style>.uuid-c2895931-d5cd-46ef-8e70-0522d73608fb{fill:#b41c31;}.uuid-c2895931-d5cd-46ef-8e70-0522d73608fb,.uuid-f2e06235-af12-4a76-b08b-d29509cd7dfa,.uuid-1f7e44ec-ddda-4064-b270-0ec30d92b574{stroke-width:0px;}.uuid-f2e06235-af12-4a76-b08b-d29509cd7dfa{fill:#fff;}.uuid-1f7e44ec-ddda-4064-b270-0ec30d92b574{fill:#3b3676;}</style></defs><g id="uuid-48c7e2da-4a8b-41a4-bf39-b33b55a3e1f5"><path class="uuid-f2e06235-af12-4a76-b08b-d29509cd7dfa" d="m453.31,749.65l-5.06,10.78c-.54,1.14-1.56,2.9-2.28,3.93l-4.21,5.98c-.63.9-1.48,2.51-1.86,3.53l-3.03,8.1c-.44,1.16-1.25,3-1.82,4.1l-5.09,9.8c-.49.96-1.09,2.67-1.3,3.73l-1.07,5.35c-.14.73-.49,1.52-.95,2.25-.48.77-1.08,1.46-1.71,1.92l-4.68,3.43c-1.36,1-3.55,1.08-4.98.18l-6.15-3.89c-.86-.55-2.5-1.16-3.51-1.33l-1.96-.31-1.6-.26c-.79-.12-2.03-.01-2.93.26-.19.05-.36.11-.51.18l-11.47,5.04c-1.12.49-2.98,1.21-4.14,1.61l-8.32,2.83c-.84.29-1.98,1.25-2.4,2.03l-1.29,2.39c-.53.98-1.24,2.69-1.56,3.75l-1.43,4.78c-.53,1.77-2.42,2.85-4.22,2.41l-10.8-2.68c-.94-.23-2.57-.17-3.48.14l-3.74,1.25c-.96.32-2.46,1.21-3.21,1.9l-1.71,1.57c-.66.61-1.37,1.98-1.49,2.87l-.98,7.42c-.14,1.11-.21,2.98-.14,4.09l.24,4.11c.06.98-.3,1.85-.99,2.39-.69.55-1.62.69-2.56.4l-2.37-.71c-1.07-.33-2.91-.72-4.02-.86-1.28-.15-2.83-.31-3.34-.31-.37.17-1.36.67-2.19,1.11-.89.46-2.17,1.58-2.75,2.39l-.08.11c-.7.99-1.9,2.57-2.65,3.52l-7.03,8.92s-.03.03-.05.05c-.04.04-.08.08-.13.12-.02.02-.05.05-.07.06-.04.04-.1.06-.14.09-.03.01-.06.03-.08.04-.05.03-.11.05-.18.06-.02,0-.04.02-.07.02-.09.02-.17.03-.26.03h-.05l-284.53-10.32s-.02,0-.03,0c-.06,0-.12-.01-.19-.02-.02,0-.03,0-.05-.01-.07-.02-.14-.04-.2-.07-.02,0-.03-.02-.05-.02-.05-.02-.1-.06-.15-.08-.02-.02-.03-.02-.05-.04-.05-.04-.11-.09-.16-.14h0c-.04-.06-.09-.11-.13-.17-.01-.02-.02-.03-.03-.05-.02-.02-.03-.04-.04-.06l-2.89-5.68c-.51-.99-1.52-2.54-2.21-3.41l-.22-.26c-.62-.78-1.97-1.81-2.89-2.21-.56-.24-3.33-1.47-3.65-1.63-.99-.49-3.37-4.91-3.55-5.4-.18-.46-.38-1.15-.6-1.89-.27-.91-.6-2.04-.83-2.5-.46-.93-3.46-7.04-3.58-7.3-.57-1.16-1.24-3.08-1.53-4.34l-1.77-7.86c-.31-1.38-.19-3.51.27-4.85l1.66-4.81.91-2.65c.42-1.23,1.3-3.05,1.99-4.14.95-1.5,2.04-3.39,2.23-3.93.01-.92-.65-6.31-1.31-11.13-.23-1.67.66-3.63,2.08-4.55l6.57-4.29c.99-.64,2.59-1.72,3.58-2.4l2.39-1.65c.71-.48,1.47-1.7,1.6-2.54l.97-6.18c.17-1.1.28-2.97.23-4.08l-.34-8.76c-.06-1.51.64-3.52,1.62-4.68l3.76-4.41.28-.33c.59-.69,1.17-2.16,1.21-3.08l.35-7.33c.05-1-.25-2.7-.65-3.63l-2.8-6.62c-.56-1.31-.82-3.42-.61-4.82l2.31-15.56c.18-1.2.51-3.15.75-4.34l2.66-13.36c.26-1.27.85-3.18,1.35-4.37l1.96-4.62,1.05-2.46c.42-.98.85-2.71.93-3.77.28-3.65.58-7.81.56-8.34-.17-.8-.48-3.18-1.49-11.19-.16-1.35-.01-3.43.35-4.73l5.3-19.03c.3-1.1.7-2.96.86-4.09l1.44-9.95c.14-.98-.03-2.67-.36-3.61l-.4-1.15-2.13-6.1c-.5-1.41-.46-3.54.09-4.93l2.82-7.23c.4-1.01.83-2.78.94-3.86l.57-5.48c.16-1.57,1.3-3.39,2.65-4.23l4.67-2.94c.75-.48,1.68-1.69,1.94-2.54l3.11-10.18c.36-1.18,1.04-3.06,1.51-4.19l3.31-7.95c.46-1.1,1.2-2.9,1.65-4.01l2.07-5.06,3.41-8.33c.52-1.28,1.75-3,2.79-3.9l7.07-6.15c.82-.71,2.02-2.08,2.62-2.98l9.2-13.85c.52-.8.99-2.34.99-3.3v-5.18c0-1.14-.12-3.05-.25-4.19l-.52-4.47c-.18-1.53.41-3.58,1.37-4.77l1.73-2.13c.73-.91,1.85-2.43,2.49-3.41l3.89-5.88c.34-.51.77-1.18,1.2-1.85.4-.64.79-1.28,1.08-1.77l4.45-7.48c.68-1.14,1.99-2.72,2.98-3.6l.53-.48c.56-.49.93-1.65.77-2.37-.2-.91-.51-1.91-.69-2.26-.49-.37-.97-1.39-1.78-8.97-.15-1.4.2-3.51.81-4.79l2.83-6.03c.56-1.18,1.62-2.89,2.42-3.91l.82-1.04c.73-.93,1.86-2.46,2.53-3.43l3.22-4.69c.64-.93,1.63-2.58,2.15-3.59l2.27-4.39c.46-.89.89-2.55.91-3.55l.19-9.03c.02-1.07-.22-2.85-.52-3.88l-4.67-15.72c-.4-1.34-.47-3.46-.16-4.83l2.15-9.62c.23-1.04.34-2.81.22-3.87l-.66-6c-.14-1.35.03-3.42.41-4.72l2.21-7.72c.33-1.16.91-3.04,1.29-4.2l.86-2.61c.15-.47.4-.95.72-1.42.51-.76,1.18-1.46,1.89-1.95.2-.15.42-.28.63-.39l6.94-3.51c1.16-.59,3.05-1.29,4.3-1.61l3.5-.87,4.69-1.18c.51-.12,1.13-.24,1.78-.33.99-.13,2.04-.2,2.83-.18l8.79.21c1.09.03,2.9-.17,3.96-.43l11.9-2.91c.55-.14,1-.77.94-1.33l-.61-5.77c-.17-1.6.62-3.6,1.85-4.64l4.14-3.54c1.12-.95,3.06-1.77,4.52-1.9l4.51-.39s.07,0,.1-.01c1.14-.11,2.97-.37,4.05-.6l3.82-.79,5.01-3.62,2.46,1.83c.61-.33,1.2-.78,1.53-1.18l3.9-4.72c.35-.43.78-1.03,1.17-1.65l-.4-1.27,1.74-1.22,3.36-7.1c.26-.53.63-1.1,1.07-1.62.67-.8,1.5-1.53,2.27-1.96l8.32-4.69c.69-.39,1.44-1.51,1.53-2.3l.66-5.31c.12-1-.05-2.71-.36-3.67l-1.75-5.25c-.54-1.62.01-3.69,1.29-4.82,4.53-4.03,5.61-4.72,6.13-4.84.66-.33,3.25-2.11,5.39-3.64.53-.38.85-1.33.65-1.96l-3.26-10.36-4.19-3h3.25l-.86-2.74c-.33-1.04-1.1-2.69-1.68-3.61l-8.37-13.17c-.7-1.1-1.57-2.93-1.98-4.17l-3.47-10.46c-.5-1.5-.22-3.63.65-4.95l7.26-11.06c.62-.94,1.52-2.6,1.96-3.62l5.93-13.61c.49-1.12,1.36-2.92,1.94-4,4.17-7.78,5.43-9.8,6.16-10.33.4-.49,1.41-2.07,2.67-4.11h0c1.11-1.8,2.39-3.95,3.6-6,.4-.68.47-1.99.14-2.71l-2.6-5.71-6.29-13.84c-.69-1.51-.45-3.64.55-4.97l4.05-5.33c.67-.88,1.63-2.47,2.09-3.47l3.59-7.68c.48-1.02,1.12-2.78,1.42-3.86l2.8-10.3c.34-1.28,1.15-3.15,1.84-4.27l2.27-3.67c.63-1.03,1.67-2.68,2.32-3.7,2.13-3.34,4.47-7.11,4.9-7.98.05-1.27.36-6.69.42-7.86.02-.43.05-.95.07-1.5.05-.98.09-2.04.1-2.8l.11-4.4c0-.09,0-.18,0-.28h0s-2.28-7.11-2.28-7.11l.12-.09-.22-.55c-.46-1.16-1.08-3.08-1.38-4.29l-.19-.75c-.41-1.63.33-3.68,1.69-4.68,0,0,.01,0,.02-.01.04-.03.97-.7,1.97-1.36,1.64-1.08,2.53-1.58,3.3-1.29.7.05,3.47-.18,5.76-.42.85-.09,2.08-.79,2.59-1.48l.46-.62c.73-.98,1.95-2.53,2.74-3.47l1.37-1.64c.89-1.04,2.55-2.33,3.79-2.91l3.25-1.53c1.1-.52,2.92-1.31,4.05-1.75l3.29-1.31c1.58-.63,3.68-.19,4.89,1.02,2.86,2.87,3.4,3.86,3.53,4.29.38.57,2.33,2.47,3.99,3.96.76.69,2.28,1.58,3.24,1.91l.36.12,2.17.76,2.19.76c1.15.4,3,1.1,4.13,1.57,1.65.69,3.74,1.44,4.22,1.48.43,0,1.92.06,3.34.11,1.41.06,2.75.12,2.86.12.69.02,1.62-.53,1.91-1.16l.45-.97c.52-1.11,1.36-2.87,1.87-3.94l2.45-5.09c.51-1.05,1.26-2.79,1.68-3.89l.47-1.23c.54-1.42,1.8-2.91,2.93-3.46l1.54-.75c.07-.04.15-.07.23-.08.16-.05.33-.05.49-.03.03,0,.06.01.09.02.05.01.1.02.15.03.03.01.06.03.1.05.04.02.08.03.12.06.03.02.06.04.09.06.04.02.07.05.11.08.03.03.06.06.09.09.03.03.06.05.08.08.1.13.17.28.22.44.02.09.03.17.03.25l3.37,61.71,3.73,68.28,3.8,69.56,3.65,66.82,3.85,70.62,3.6,65.98,3.39,62.18,3.85,70.39,2.15,39.43,2.56,3.33c.83,1.09,1.7,2.91,1.97,4.14.28,1.24.26,3.26-.05,4.6-.25,1.11-.54,2.45-.6,2.88.08.4.27,1.42.73,4.19.26,1.5-.19,3.58-1.02,4.85l-.94,1.42c-.55.83-1.12,2.42-1.22,3.42l-.05.45-.12,1.19c-.12,1.1-.1,2.95.03,4.04l.09.73c.16,1.28.18,3.3.05,4.59l-.19,1.81c-.11,1.12-.17,2.85-.12,3.79.07,1.33-.64,3.19-1.65,4.34l-1.82,2.09c-.57.65-1.05,2.04-1,2.91l.53,9.63c.06,1.03.48,2.76.91,3.71l1.91,4.22c.42.94,1.44,2.39,2.18,3.12l2.66,2.6c.76.74,2.22,1.75,3.19,2.2l1.85.86c1.37.64,2.85,2.16,3.45,3.54l3.33,7.62c.44,1,1.37,2.59,2.04,3.46.48.63.98,1.28,1.45,1.89.86,1.11,1.61,2.06,1.92,2.42.69.28,2.18.99,5.85,2.76,1.28.61,2.87,2.04,3.63,3.24l.99,1.56c.54.85,1.76,2.08,2.61,2.62l.79.51c1.32.84,2.47,2.65,2.68,4.19l.43,3.09c.18,1.35.06,3.43-.3,4.73l-1.13,4.26c-.3,1.14-.73,3-.94,4.15l-1.98,10.39c-.17.89.07,2.43.49,3.23l1.98,3.7c.49.91,1.61,2.32,2.38,3.01l11.43,10.13c.73.65,2.2,1.36,3.16,1.52l8.87,1.57c.72.12,1.4.48,1.96.98.78.68,1.33,1.63,1.45,2.62l.05.4c.17,1.41-.16,3.52-.77,4.8Z"/><path class="uuid-c2895931-d5cd-46ef-8e70-0522d73608fb" d="m359.56,62.89h-37.36V15.81l2.17.76,2.19.76c1.15.4,3,1.1,4.13,1.57,1.65.69,3.74,1.44,4.22,1.48.43,0,1.92.06,3.34.11,1.41.06,2.75.12,2.86.12.69.02,1.62-.53,1.91-1.16l.45-.97c.52-1.11,1.36-2.87,1.87-3.94l2.45-5.09c.51-1.05,1.26-2.79,1.68-3.89l.47-1.23c.54-1.42,1.8-2.91,2.93-3.46l1.54-.75c.07-.04.15-.07.23-.08.16-.05.33-.05.49-.03.03,0,.06.01.09.02.05.01.1.02.15.03.03.01.06.03.1.05.04.02.08.03.12.06.03.02.06.04.09.06.04.02.07.05.11.08.03.03.06.06.09.09.03.03.06.05.08.08.1.13.17.28.22.44.02.09.03.17.03.25l3.37,61.71Z"/><polygon class="uuid-c2895931-d5cd-46ef-8e70-0522d73608fb" points="367.09 200.73 322.2 200.73 322.2 131.17 363.29 131.17 367.09 200.73"/><polygon class="uuid-c2895931-d5cd-46ef-8e70-0522d73608fb" points="374.59 338.17 323.5 338.17 323.06 267.55 370.74 267.55 374.59 338.17"/><polygon class="uuid-c2895931-d5cd-46ef-8e70-0522d73608fb" points="381.59 466.33 323.5 466.33 321.19 404.15 378.2 404.15 381.59 466.33"/><path class="uuid-c2895931-d5cd-46ef-8e70-0522d73608fb" d="m392.21,595.3c.26,1.5-.19,3.58-1.02,4.85l-.94,1.42c-.55.83-1.12,2.42-1.22,3.42l-.05.45H43.44l-2.13-6.1c-.5-1.41-.46-3.54.09-4.93l2.82-7.23c.4-1.01.83-2.78.94-3.86l.57-5.48c.16-1.57,1.3-3.39,2.65-4.23l4.67-2.94c.75-.48,1.68-1.69,1.94-2.54l3.11-10.18c.36-1.18,1.04-3.06,1.51-4.19l3.31-7.95c.46-1.1,1.2-2.9,1.65-4.01l2.07-5.06h318.8l2.15,39.43,2.56,3.33c.83,1.09,1.7,2.91,1.97,4.14.28,1.24.26,3.26-.05,4.6-.25,1.11-.54,2.45-.6,2.88.08.4.27,1.42.73,4.19Z"/><path class="uuid-c2895931-d5cd-46ef-8e70-0522d73608fb" d="m30.24,731.09c.05-1-.25-2.7-.65-3.63l-2.8-6.62c-.56-1.31-.82-3.42-.61-4.82l2.31-15.56c.18-1.2.51-3.15.75-4.34l2.66-13.36c.26-1.27.85-3.18,1.35-4.37l1.96-4.62h372.55c.86,1.11,1.61,2.06,1.92,2.42.69.28,2.18.99,5.85,2.76,1.28.61,2.87,2.04,3.63,3.24l.99,1.56c.54.85,1.76,2.08,2.61,2.62l.79.51c1.32.84,2.47,2.65,2.68,4.19l.43,3.09c.18,1.35.06,3.43-.3,4.73l-1.13,4.26c-.3,1.14-.73,3-.94,4.15l-1.98,10.39c-.17.89.07,2.43.49,3.23l1.98,3.7c.49.91,1.61,2.32,2.38,3.01l11.43,10.13c.73.65,2.2,1.36,3.16,1.52l8.87,1.57c.72.12,1.4.48,1.96.98H28.4l.28-.33c.59-.69,1.17-2.16,1.21-3.08l.35-7.33Z"/><path class="uuid-c2895931-d5cd-46ef-8e70-0522d73608fb" d="m399.12,807.19c-.19.05-.36.11-.51.18l-11.47,5.04c-1.12.49-2.98,1.21-4.14,1.61l-8.32,2.83c-.84.29-1.98,1.25-2.4,2.03l-1.29,2.39c-.53.98-1.24,2.69-1.56,3.75l-1.43,4.78c-.53,1.77-2.42,2.85-4.22,2.41l-10.8-2.68c-.94-.23-2.57-.17-3.48.14l-3.74,1.25c-.96.32-2.46,1.21-3.21,1.9l-1.71,1.57c-.66.61-1.37,1.98-1.49,2.87l-.98,7.42c-.14,1.11-.21,2.98-.14,4.09l.24,4.11c.06.98-.3,1.85-.99,2.39-.69.55-1.62.69-2.56.4l-2.37-.71c-1.07-.33-2.91-.72-4.02-.86-1.28-.15-2.83-.31-3.34-.31-.37.17-1.36.67-2.19,1.11-.89.46-2.17,1.58-2.75,2.39l-.08.11c-.7.99-1.9,2.57-2.65,3.52l-7.03,8.92s-.03.03-.05.05c-.04.04-.08.08-.13.12-.02.02-.05.05-.07.06-.04.04-.1.06-.14.09-.03.01-.06.03-.08.04-.05.03-.11.05-.18.06-.02,0-.04.02-.07.02-.09.02-.17.03-.26.03h-.05l-284.53-10.32s-.02,0-.03,0c-.06,0-.12-.01-.19-.02-.02,0-.03,0-.05-.01-.07-.02-.14-.04-.2-.07-.02,0-.03-.02-.05-.02-.05-.02-.1-.06-.15-.08-.02-.02-.03-.02-.05-.04-.05-.04-.11-.09-.16-.14h0c-.04-.06-.09-.11-.13-.17-.01-.02-.02-.03-.03-.05-.02-.02-.03-.04-.04-.06l-2.89-5.68c-.51-.99-1.52-2.54-2.21-3.41l-.22-.26c-.62-.78-1.97-1.81-2.89-2.21-.56-.24-3.33-1.47-3.65-1.63-.99-.49-3.37-4.91-3.55-5.4-.18-.46-.38-1.15-.6-1.89-.27-.91-.6-2.04-.83-2.5-.46-.93-3.46-7.04-3.58-7.3-.57-1.16-1.24-3.08-1.53-4.34l-1.77-7.86c-.31-1.38-.19-3.51.27-4.85l1.66-4.81h397.02Z"/><path class="uuid-c2895931-d5cd-46ef-8e70-0522d73608fb" d="m426.64,807.19c-.48.77-1.08,1.46-1.71,1.92l-4.68,3.43c-1.36,1-3.55,1.08-4.98.18l-6.15-3.89c-.86-.55-2.5-1.16-3.51-1.33l-1.96-.31h22.99Z"/><path class="uuid-1f7e44ec-ddda-4064-b270-0ec30d92b574" d="m324.37,16.57v449.77H102.62c.4-.64.79-1.28,1.08-1.77l4.45-7.48c.68-1.14,1.99-2.72,2.98-3.6l.53-.48c.56-.49.93-1.65.77-2.37-.2-.91-.51-1.91-.69-2.26-.49-.37-.97-1.39-1.78-8.97-.15-1.4.2-3.51.81-4.79l2.83-6.03c.56-1.18,1.62-2.89,2.42-3.91l.82-1.04c.73-.93,1.86-2.46,2.53-3.43l3.22-4.69c.64-.93,1.63-2.58,2.15-3.59l2.27-4.39c.46-.89.89-2.55.91-3.55l.19-9.03c.02-1.07-.22-2.85-.52-3.88l-4.67-15.72c-.4-1.34-.47-3.46-.16-4.83l2.15-9.62c.23-1.04.34-2.81.22-3.87l-.66-6c-.14-1.35.03-3.42.41-4.72l2.21-7.72c.33-1.16.91-3.04,1.29-4.2l.86-2.61c.15-.47.4-.95.72-1.42.51-.76,1.18-1.46,1.89-1.95.2-.15.42-.28.63-.39l6.94-3.51c1.16-.59,3.05-1.29,4.3-1.61l3.5-.87,4.69-1.18c.51-.12,1.13-.24,1.78-.33.99-.13,2.04-.2,2.83-.18l8.79.21c1.09.03,2.9-.17,3.96-.43l11.9-2.91c.55-.14,1-.77.94-1.33l-.61-5.77c-.17-1.6.62-3.6,1.85-4.64l4.14-3.54c1.12-.95,3.06-1.77,4.52-1.9l4.51-.39s.07,0,.1-.01c1.14-.11,2.97-.37,4.05-.6l3.82-.79,5.01-3.62,2.46,1.83c.61-.33,1.2-.78,1.53-1.18l3.9-4.72c.35-.43.78-1.03,1.17-1.65l-.4-1.27,1.74-1.22,3.36-7.1c.26-.53.63-1.1,1.07-1.62.67-.8,1.5-1.53,2.27-1.96l8.32-4.69c.69-.39,1.44-1.51,1.53-2.3l.66-5.31c.12-1-.05-2.71-.36-3.67l-1.75-5.25c-.54-1.62.01-3.69,1.29-4.82,4.53-4.03,5.61-4.72,6.13-4.84.66-.33,3.25-2.11,5.39-3.64.53-.38.85-1.33.65-1.96l-3.26-10.36-4.19-3h3.25l-.86-2.74c-.33-1.04-1.1-2.69-1.68-3.61l-8.37-13.17c-.7-1.1-1.57-2.93-1.98-4.17l-3.47-10.46c-.5-1.5-.22-3.63.65-4.95l7.26-11.06c.62-.94,1.52-2.6,1.96-3.62l5.93-13.61c.49-1.12,1.36-2.92,1.94-4,4.17-7.78,5.43-9.8,6.16-10.33.4-.49,1.41-2.07,2.67-4.11h0c1.11-1.8,2.39-3.95,3.6-6,.4-.68.47-1.99.14-2.71l-2.6-5.71-6.29-13.84c-.69-1.51-.45-3.64.55-4.97l4.05-5.33c.67-.88,1.63-2.47,2.09-3.47l3.59-7.68c.48-1.02,1.12-2.78,1.42-3.86l2.8-10.3c.34-1.28,1.15-3.15,1.84-4.27l2.27-3.67c.63-1.03,1.67-2.68,2.32-3.7,2.13-3.34,4.47-7.11,4.9-7.98.05-1.27.36-6.69.42-7.86.02-.43.05-.95.07-1.5.05-.98.09-2.04.1-2.8l.11-4.4c0-.09,0-.18,0-.28h0s-2.28-7.11-2.28-7.11l.12-.09-.22-.55c-.46-1.16-1.08-3.08-1.38-4.29l-.19-.75c-.41-1.63.33-3.68,1.69-4.68,0,0,.01,0,.02-.01.04-.03.97-.7,1.97-1.36,1.64-1.08,2.53-1.58,3.3-1.29.7.05,3.47-.18,5.76-.42.85-.09,2.08-.79,2.59-1.48l.46-.62c.73-.98,1.95-2.53,2.74-3.47l1.37-1.64c.89-1.04,2.55-2.33,3.79-2.91l3.25-1.53c1.1-.52,2.92-1.31,4.05-1.75l3.29-1.31c1.58-.63,3.68-.19,4.89,1.02,2.86,2.87,3.4,3.86,3.53,4.29.38.57,2.33,2.47,3.99,3.96.76.69,2.28,1.58,3.24,1.91l.36.12,2.17.76Z"/><path class="uuid-f2e06235-af12-4a76-b08b-d29509cd7dfa" d="m279.08,49.8l-3.43-2.56c.05-.98.09-2.04.1-2.8l.11-4.4c0-.09,0-.18,0-.28l3.22,10.04Z"/><path class="uuid-f2e06235-af12-4a76-b08b-d29509cd7dfa" d="m288.15,22.29l-14.45,10.26-.22-.55c-.46-1.16-1.08-3.08-1.38-4.29l-.19-.75c-.41-1.63.33-3.68,1.69-4.68h14.55Z"/><path class="uuid-f2e06235-af12-4a76-b08b-d29509cd7dfa" d="m273.58,135.62l5.51,17.09-14.18-10.54-14.17,10.54,3.76-12.62h0c1.11-1.8,2.39-3.95,3.6-6,.4-.68.47-1.99.14-2.71l-2.6-5.71h3.34l5.93-17.32,5.49,17.32h17.76l-14.57,9.95Z"/><polygon class="uuid-f2e06235-af12-4a76-b08b-d29509cd7dfa" points="127.48 429.32 145.06 429.32 150.96 412.17 156.03 429.32 173.78 429.32 159.16 439.67 164.66 456.36 150.96 445.83 136.36 456.36 141.63 439.67 127.48 429.32"/><polygon class="uuid-f2e06235-af12-4a76-b08b-d29509cd7dfa" points="241.04 429.32 258.97 429.32 264.9 412.17 270.39 429.32 288.15 429.32 273.58 439.67 279.08 456.36 264.9 445.83 250.73 456.36 255.82 439.67 241.04 429.32"/><polygon class="uuid-f2e06235-af12-4a76-b08b-d29509cd7dfa" points="241.04 328.43 258.97 328.43 264.9 311.16 270.39 328.43 288.15 328.43 273.58 339.45 279.08 355.92 264.9 345.59 250.73 355.92 255.82 339.45 241.04 328.43"/><path class="uuid-f2e06235-af12-4a76-b08b-d29509cd7dfa" d="m159.16,339.45l5.5,16.47-13.7-10.33-14.6,10.33,5.27-16.47-11.64-9.07c.51-.76,1.18-1.46,1.89-1.95h13.19l2.18-6.38,4.69-1.18c.51-.12,1.13-.24,1.78-.33l2.31,7.88h17.75l-14.62,11.02Z"/><polygon class="uuid-f2e06235-af12-4a76-b08b-d29509cd7dfa" points="185.58 377.95 204.02 377.95 209.53 360.35 214.61 377.95 232.37 377.95 218.2 388.53 223.69 405.41 209.53 394.89 194.91 405.41 200.41 388.53 185.58 377.95"/><path class="uuid-f2e06235-af12-4a76-b08b-d29509cd7dfa" d="m204.52,298.27l-9.6,6.93,1.74-5.54c1.14-.11,2.97-.37,4.05-.6l3.82-.79Z"/><path class="uuid-f2e06235-af12-4a76-b08b-d29509cd7dfa" d="m223.69,305.2l-11.71-8.71c.61-.33,1.2-.78,1.53-1.18l3.9-4.72c.35-.43.78-1.03,1.17-1.65l5.1,16.27Z"/><path class="uuid-f2e06235-af12-4a76-b08b-d29509cd7dfa" d="m232.37,277.72l-12.43,8.72,3.36-7.1c.26-.53.63-1.1,1.07-1.62h8Z"/><polygon class="uuid-f2e06235-af12-4a76-b08b-d29509cd7dfa" points="273.58 236.5 279.08 253.38 264.9 243.27 250.73 253.38 255.82 236.5 245.24 228.92 241.05 225.92 258.97 225.92 264.9 208.59 270.39 225.92 288.15 225.92 273.58 236.5"/></g></svg>