<svg width="108" height="60" viewBox="0 0 108 60" fill="none" xmlns="http://www.w3.org/2000/svg">
<g id="blueprint-logo" clip-path="url(#clip0_283_4799)">
<g id="uuid-fe0e41d7-31ed-491a-a1f4-cf1a77e49378">
<path id="Vector" d="M82.6328 53.4683V53.4992L82.6694 53.4666C82.6572 53.4671 82.6449 53.4678 82.6328 53.4683Z" fill="black"/>
<path id="Vector_2" d="M81.843 31.4145L79.562 33.6953L77.2809 31.4145L79.562 29.1338L81.843 31.4145Z" fill="#133B85"/>
<path id="Vector_3" d="M90.8513 25.4397C92.5518 27.944 98.4919 31.4342 101.735 31.5415C97.039 30.9919 91.5795 25.3051 91.6591 25.306C90.5895 24.0037 90.2388 24.1967 88.8767 23.0422C88.2481 22.5099 86.3889 18.6235 86.167 18.546C85.7656 18.4049 84.8666 19.5023 84.2441 19.0604C83.6861 18.6632 83.3601 18.0196 82.6845 17.5553C82.5583 17.4682 79.6374 16.656 79.6374 16.656C77.6949 13.693 78.0276 15.256 75.6931 12.8298C75.6808 12.817 75.8568 13.0512 75.6931 12.8298C75.6731 12.8033 75.2469 12.1198 75.0376 11.8152C74.7117 11.9934 74.5574 11.9414 74.3671 12.144C73.9944 12.5414 73.1444 13.8302 72.3291 14.4556C71.185 14.4455 69.7165 14.3675 68.8453 13.9325C67.7179 13.3688 67.2231 11.7067 66.9214 11.4322C66.6796 11.2118 64.5816 10.9724 63.6354 10.4331C63.4153 10.3074 63.1756 10.1012 62.9296 9.88848C62.7259 9.27792 62.4346 7.52872 62.3024 7.20994C62.2359 7.05038 61.3917 6.8616 60.7424 6.50063C59.0003 5.5313 58.0415 3.52038 57.0351 1.88309C57.059 1.86122 56.8716 1.54756 56.7101 1.28635C56.6027 1.11261 55.2978 -0.0261834 55.2223 -4.53771e-05C54.9792 0.0843479 52.4287 2.68499 52.3018 2.87223C51.584 3.93056 49.4199 8.12989 48.1743 7.6794C47.7511 8.13638 46.8442 9.67391 46.1447 10.2993C46.1249 10.3224 44.6504 11.7648 44.5865 11.8316C44.2153 11.5818 42.8794 10.9627 41.9193 9.8017C41.2834 9.03174 41.1899 8.42476 40.2338 7.83776C39.3828 7.3162 38.6113 6.76662 37.8291 6.14221C37.8073 6.06089 37.4746 6.18646 37.4746 6.18646C37.4796 6.23651 36.2369 7.4925 35.0938 9.21966C34.5209 10.0846 33.4114 10.6848 33.146 10.8431C32.6591 11.1344 31.5866 14.8374 30.585 15.5478C30.5638 15.5478 29.6113 15.7559 29.5855 15.7651C27.0185 20.1619 24.8699 21.2518 24.9127 21.293C24.9796 21.3588 21.8225 20.2943 21.6105 20.4604C19.4486 22.1612 16.5626 25.9563 16.3511 26.2891C15.5253 27.5887 9.27321 30.3472 8.68921 30.4943C12.7733 29.7795 14.9519 27.9673 16.5031 27.0688C16.5125 27.0652 16.5226 27.0615 16.5282 27.0584C18.2961 26.3089 20.3695 22.2157 22.0766 21.3347C21.9298 21.5862 23.3322 24.159 23.1477 24.5196C22.623 25.0419 21.6723 25.9917 21.5062 26.0329C20.965 26.1648 20.3482 27.0094 19.6741 27.7132C20.6839 26.7888 22.8506 25.5125 22.8702 25.4778C23.5309 24.9397 24.1156 24.1175 24.3941 23.51C25.6672 22.7229 26.4195 22.9476 26.4856 22.8859C26.5536 22.8239 27.2833 21.4804 28.0505 19.791C28.6776 18.738 29.3003 17.6839 29.9229 16.6285C30.2944 16.7248 30.5584 16.7481 30.8376 16.7623C31.739 17.756 31.7824 18.764 31.601 19.0662C31.3477 19.4893 30.6911 20.5227 30.4473 21.1869C31.0773 20.2347 31.7916 19.4615 31.9188 19.1282C32.0278 18.8429 32.0812 18.4814 32.2232 18.1257C33.524 17.1352 32.5407 17.6433 33.627 15.94C34.1941 15.5133 34.5922 15.0536 35.5649 13.5591C35.6877 15.6045 35.1654 15.1422 34.7571 16.1939C35.2085 15.9428 35.7732 15.0257 36.0773 14.5528C36.4089 14.0384 36.2952 13.5618 36.4009 12.956C36.4286 12.7977 37.6053 9.1761 37.802 8.43569C38.0782 8.8662 38.5862 9.42825 39.3447 10.3907C39.3631 10.4336 39.3795 10.4768 39.3961 10.5206C39.4132 11.3413 39.4665 12.5419 39.602 12.6752C40.1315 13.1957 40.8991 14.4078 41.0391 15.7636C41.0948 16.2972 41.2255 16.8586 41.3813 17.3675C41.3774 16.7754 41.3845 16.1835 41.3893 15.5919C41.3931 15.1263 41.2854 14.9962 41.0432 14.568C40.7891 14.1193 40.6135 13.6378 40.398 13.1716C40.14 12.6126 39.7175 12.6789 40.0657 10.9501C40.3414 11.1122 40.6172 11.3543 40.825 11.5439C40.9769 12.2055 41.0444 12.7782 41.0459 13.1375C41.9193 13.9235 42.308 13.9175 42.6178 14.4233C42.6998 14.558 43.0122 14.7903 43.4227 15.0633C43.7316 15.7193 43.7843 15.917 44.1467 16.1479C44.5849 16.4259 45.2338 16.7286 45.6564 17.1316C45.028 17.4931 43.9948 18.0664 43.8068 18.2122C42.6824 18.6809 41.3528 18.5984 41.0042 19.133C40.9514 19.2225 40.9405 19.2681 40.9068 19.3383C39.7949 21.8279 39.7033 22.4648 37.5421 23.7684C33.6749 24.46 33.1257 23.1088 31.3788 22.2986H31.3766C31.3086 22.2114 30.1116 23.2429 29.6677 23.8328C29.2229 24.4236 26.7392 27.9433 26.3916 27.9864C26.3916 27.9869 25.7002 28.0745 25.7208 28.0773C24.5817 27.8714 23.7739 27.7043 22.3378 26.7155C20.3022 29.3703 17.1157 32.3608 13.7282 32.6451C17.0762 32.6721 20.3159 30.0308 22.4569 27.5436C22.7704 27.7549 25.7584 28.4519 26.2459 29.3468C26.2459 29.4298 28.0512 26.8187 29.0857 25.909C29.822 25.2677 30.5232 24.1069 31.2551 23.2875C33.1681 25.6068 32.7698 23.9312 33.8766 27.7469C33.9192 27.8929 34.3168 28.1362 34.8196 28.4646C35.4926 28.9041 35.189 29.6003 35.3944 29.9112C35.4643 30.0163 36.4325 31.4171 36.7132 31.7234C36.5754 31.3874 35.9857 30.2281 35.8241 29.4124C35.6626 28.5975 35.9293 28.127 35.706 27.4934C36.0527 27.7805 36.3322 28.085 36.608 28.4142C37.0198 29.6047 37.9381 30.6417 39.4407 31.2791C39.7065 31.4544 39.9738 31.5968 40.2406 31.6949C37.6713 32.9936 36.4865 34.4351 34.6378 34.8436C36.7812 34.531 37.3147 33.7786 40.0442 32.642C40.1593 32.6388 41.1235 32.0974 41.4097 31.9436L41.2926 31.8218C41.2966 31.8196 41.3012 31.8172 41.3048 31.8145C41.6458 31.6305 42.7026 30.8677 42.7501 30.8248C43.1432 30.4664 43.9973 29.3738 44.0353 29.2291C44.5229 28.4379 44.9666 27.6314 45.3999 26.8134C46.1244 26.6335 46.8948 26.3428 47.5391 25.963C47.9218 25.9398 47.8981 26.2 48.2275 26.3739C48.2849 27.9743 47.4167 28.754 46.8727 30.2252C46.9243 30.1996 48.0693 28.6682 48.2258 28.3199C48.5306 27.6351 48.676 27.9707 48.7423 26.1625C48.9902 25.7787 49.0879 25.2674 49.4411 24.9136C49.8141 24.5392 50.6682 24.1668 50.64 23.5897C52.6678 22.4101 53.3681 20.7838 54.0886 19.7772C55.6289 21.5397 55.5623 22.8333 57.8059 24.6843C58.3111 25.4329 58.7148 26.8561 59.3132 28.0134C59.6371 28.2449 59.9397 28.5004 60.2324 28.7693C60.3429 28.8606 60.9852 29.3669 60.999 29.3773L60.9985 29.376C61.5735 29.8055 63.2412 30.0099 63.9325 30.2455C63.5852 29.7484 61.7194 29.255 61.4898 28.8054C61.0233 27.8906 60.0984 25.9186 60.1654 25.4575C60.2075 25.1659 61.0636 24.7485 61.5764 24.4924C61.6244 24.5391 61.6721 24.5861 61.7165 24.6353C61.9354 25.3533 62.5703 26.6493 62.5407 26.6296C62.5407 26.6296 62.7775 26.9491 62.8532 27.061C62.9882 27.0601 66.2554 29.9039 66.2554 29.9039C66.3485 29.8596 66.5388 29.7701 66.5388 29.7701C66.9785 29.5634 68.4051 30.0742 69.7004 30.3704C70.1992 30.484 73.2425 33.0358 73.4299 32.9992C73.5152 32.9075 71.3031 30.8665 70.9284 30.495C70.5431 30.1143 67.8039 27.8205 67.9691 27.7716C67.9903 27.6466 66.4032 26.346 64.9087 25.4551C64.04 24.9366 62.8513 23.244 62.174 22.8449C62.0281 22.7591 61.7095 22.3136 61.6203 22.3712C61.4518 22.4817 60.4766 22.8345 60.3344 22.8345C60.2919 22.8345 59.2677 22.7007 58.526 22.4053C56.8537 21.7398 55.6824 19.734 54.3559 18.6558C54.3248 18.7066 53.158 19.2799 53.0961 19.2119C51.0261 21.9466 51.9722 22.4446 48.4532 23.7804C48.0376 24.7495 46.4013 25.8924 44.9441 26.249C44.106 27.9211 43.571 28.9321 43.1377 29.5904C42.5705 29.2955 41.8669 29.212 41.4151 28.9034C40.6765 28.399 40.254 27.4532 39.5423 26.8927C39.1155 26.5567 37.9986 26.2194 37.7271 25.7744C37.3782 25.2043 37.7131 24.5908 38.205 24.0896C38.3024 24.3042 39.7195 23.1259 40.1 22.7516C40.1111 22.7439 40.9815 21.4944 40.989 20.8359C41.7087 19.6289 40.9239 19.6005 43.7598 18.642C44.5386 18.7178 44.8709 18.358 45.1431 18.2786C44.9728 18.5712 44.8352 18.8661 44.7447 19.2372C44.6133 19.775 44.6493 20.4651 44.3614 20.9814C43.7761 22.0322 42.6469 23.0489 42.3099 24.1598C42.8656 23.5281 43.2901 22.8174 43.9201 22.2395C44.3455 21.8491 44.96 21.593 45.2542 21.1024C45.879 20.0611 45.7705 18.4476 46.6499 17.4986C46.714 17.4803 46.7779 17.4617 46.8416 17.4448C46.8416 17.4374 46.8411 17.4297 46.8416 17.4224C47.0858 17.4019 49.3813 15.2153 49.4662 15.2153C50.6328 13.6245 51.488 11.2615 51.5722 11.146C51.8989 11.098 52.1482 11.2219 52.4127 11.267C52.5813 11.5029 52.7746 11.76 52.8094 12.0485C52.8489 12.3841 52.8694 12.7768 52.8769 13.1822C52.7894 13.667 52.7221 14.2161 52.8523 14.6974C52.8402 14.9693 52.8244 15.2223 52.8068 15.4396C52.8508 15.2703 52.8923 15.0987 52.9335 14.9256C52.9538 14.9736 52.9758 15.0187 53.0018 15.0643C52.9864 14.9524 52.9784 14.8462 52.9753 14.743C53.2711 13.4366 53.4848 12.0619 53.7659 10.806C53.8858 10.2689 53.8727 9.71201 53.8669 9.15662C54.0309 8.37163 54.1484 7.54666 54.1975 7.11188C54.288 6.96564 54.3801 6.82163 54.4717 6.6783C54.6121 6.70392 55.3996 4.08619 55.6609 3.69617C55.6358 3.86052 57.0602 5.56 56.9375 5.61996C57.0944 5.86716 57.8894 6.35114 58.5787 7.25982C58.7273 7.45697 58.912 7.60269 59.0786 7.77284C59.2151 8.34258 59.3916 8.90857 59.4719 9.48787C59.5715 10.1975 59.3152 11.029 59.4767 11.7029C59.5741 12.1124 59.9327 12.4755 60.1562 12.8523C60.5399 13.4988 60.8304 14.2327 61.2658 14.8462C60.1957 13.0905 60.3315 10.2334 60.2211 8.95281C60.445 9.01602 60.672 9.01278 60.9223 8.97109C61.0638 9.69031 60.8167 10.8913 61.7572 12.2655C62.4074 14.848 62.404 13.8611 63.4302 14.518C63.7241 15.3132 64.0516 16.1066 64.2459 16.9153C64.3704 17.4366 64.242 18.2154 64.4243 18.6522C64.7513 19.4374 65.934 20.5439 66.4717 21.2889C67.1052 22.1672 67.618 23.1852 68.3434 24.0035C67.7287 22.4684 66.8599 20.9917 66.2742 19.4295C65.6085 17.6501 65.1385 15.958 64.7774 14.1806C64.9838 14.2537 65.1824 14.45 65.4053 14.4809C65.3802 14.1153 65.0937 13.6867 65.3708 13.3981C65.6228 13.2494 67.4145 16.2981 68.1444 17.8594L67.8413 17.9918C67.8575 18.0119 67.872 18.0347 67.8874 18.0562C68.1454 18.9503 68.5008 21.1475 68.5008 21.1475C68.7914 21.7696 70.0177 22.1696 70.071 22.248C70.3205 22.6223 70.5896 23.4179 70.7353 23.3952C70.954 23.69 75.7012 23.6676 75.7644 23.6987C75.68 23.7271 79.3171 26.8922 80.5698 27.712C80.9763 28.1827 83.076 29.453 83.1617 29.5379C84.9317 30.4364 86.9998 30.3673 88.8449 30.4751C88.8403 30.4367 87.7823 29.9534 87.7828 29.9168C86.7261 29.779 85.843 30.2071 84.6226 29.705C84.6081 29.699 83.6396 29.3604 83.6275 29.3509C82.2309 28.3101 81.4875 27.5848 80.5794 27.0401C79.2045 25.7108 77.0546 23.4563 76.7169 22.8871C74.8438 22.2627 74.7534 23.4001 72.8288 22.3758C70.8004 21.3062 69.5721 20.7644 68.9244 19.101C68.9334 19.0909 70.0772 17.5331 70.5017 16.9985C70.4951 17.0578 70.7861 16.327 70.796 16.3763C71.3138 16.3138 72.7169 14.8937 72.8118 14.9553L72.6848 15.8614C72.6963 15.9076 72.971 17.0007 72.2782 17.6426C72.256 17.6631 72.0179 18.9056 72.0067 18.97C72.2455 18.6678 72.3844 18.261 72.631 17.9361C73.2816 17.0793 73.3662 16.8419 73.3833 14.9398C73.4942 14.6275 74.0184 13.863 74.0821 13.8C74.3707 13.5681 74.7177 13.2271 74.949 12.9545L75.095 12.8911C75.3661 13.3247 75.6308 13.8205 75.9052 14.4865C76.142 15.0539 76.7019 16.2038 76.7019 16.2038C77.3134 16.841 77.8658 18.132 78.0607 18.4131C78.0807 18.739 78.085 19.0663 78.0867 19.3713C78.33 19.2233 78.4283 18.8837 78.5504 18.6117C78.6919 18.6573 78.8235 18.6903 78.8833 18.6797C79.1365 19.1253 79.2633 19.6451 79.4208 20.1171C79.6465 20.7942 80.0516 21.0672 80.4118 21.6094C80.6716 22.6894 81.3834 23.2382 81.6807 24.1255C83.3123 24.1168 84.6409 27.4477 85.8716 28.331C85.3209 26.6238 83.0756 25.0958 82.1779 22.9262C82.1188 22.7829 82.0715 22.6281 82.0307 22.4675C82.0997 21.8737 82.2683 20.5991 82.4159 20.5603C82.6541 20.4983 83.4794 20.8054 83.9099 20.9127C84.1129 21.5892 85.6595 23.4179 85.6595 23.4179C85.6595 23.3349 86.7792 24.5883 86.9717 24.5833C87.1758 24.9038 89.3749 26.6511 89.5538 26.9981C89.7298 27.3358 91.5899 28.2127 91.84 28.4972C91.6796 27.6746 90.085 25.7026 90.8518 25.4406L90.8513 25.4397ZM36.9333 9.01824C36.845 9.02183 36.7623 8.99501 36.6608 8.91574C36.1632 9.65905 36.378 10.2619 35.7925 11.7733C34.4265 14.341 33.0413 16.3528 30.5534 16.0026C32.0669 15.2782 32.7297 12.6637 33.6646 11.4576C34.1898 10.7803 35.0299 10.7707 35.2522 10.2708C35.4463 9.8345 36.7695 7.77199 37.6015 6.93045C37.4725 7.43032 37.1011 8.4919 36.9335 9.01824H36.9333ZM54.7142 3.55916C54.3808 4.652 53.2542 5.92781 53.2542 6.43075C53.2542 6.65267 52.6823 8.92855 52.6823 8.92855C52.5552 9.11545 51.5862 9.82425 51.0314 10.1775C50.9942 10.2042 49.7022 12.5816 49.1764 13.439C49.1021 13.6453 48.628 14.4071 48.4262 14.2602C47.9937 13.9443 47.6342 13.1752 47.6342 13.1436C47.6342 13.0737 45.6463 12.545 45.634 12.4879C46.6074 11.5442 48.7737 8.65094 48.936 8.49172C49.1393 8.29202 50.0481 7.71237 50.7075 7.26922C50.4784 8.80111 50.2604 8.48523 49.764 9.36162C50.9124 8.7953 51.2211 7.80804 51.4229 6.72579C52.1123 5.56017 52.9768 3.46418 53.1908 3.12216C53.5007 2.6252 54.6345 1.57763 55.0952 1.12423C55.2223 0.99969 54.9048 2.9351 54.7142 3.55899V3.55916Z" fill="black"/>
<path id="Vector_4" d="M-2.44919e-05 30.1551C1.03914 29.9778 3.295 29.8003 5.39862 29.8003C7.83183 29.8003 9.27645 29.9523 10.6197 30.6365C11.9378 31.2447 12.9262 32.4865 12.9262 34.1337C12.9262 35.5782 12.1404 36.9722 10.1381 37.7324V37.7831C12.2417 38.3659 13.4837 39.9118 13.4837 41.9392C13.4837 43.5357 12.7234 44.803 11.5827 45.6645C10.2902 46.6275 8.16108 47.1851 4.51118 47.1851C2.43284 47.1851 0.937482 47.0585 -0.000366211 46.9063V30.1551H-2.44919e-05ZM4.52656 39.8202L4.53698 43.7891C4.8664 43.8398 5.27202 43.8398 5.85482 43.8398C7.37564 43.8398 8.66836 43.2316 8.66836 41.7363C8.66836 40.241 8.03721 39.7059 6.31375 39.7059L5.85926 39.7037L6.71868 36.5041L6.96643 36.4906C7.99381 36.4897 8.30511 35.3486 8.33877 34.7168C8.39277 33.7044 7.57845 33.0694 6.03234 33.0694C5.27202 33.0694 4.84111 33.1202 4.53698 33.1707V36.4906L4.52656 39.8202Z" fill="black"/>
<path id="Vector_5" d="M15.8417 29.0149H20.4038V47.0079H15.8417V29.0149Z" fill="black"/>
<path id="Vector_6" d="M35.5352 42.7502C35.5352 44.524 35.5859 45.9433 35.6365 47.0076H31.7081L31.5053 45.3604H31.404C30.9478 46.0446 29.8579 47.2864 27.6275 47.2864C24.8394 47.2864 23.2174 45.4872 23.2174 41.8885V34.5393H27.7797V41.1536C27.7797 42.7502 28.3119 43.6118 29.3766 43.6118C30.2382 43.6118 30.6691 43.029 30.8466 42.5474C30.9479 42.3701 30.9734 42.1419 30.9734 41.8885V34.5393H35.5355V42.7502H35.5352Z" fill="black"/>
<path id="Vector_7" d="M42.1003 42.3702C42.2522 43.3585 43.6971 43.9161 45.2938 43.9161C46.485 43.9161 47.6002 43.7893 48.7154 43.4345L49.2984 46.4756C47.803 47.0837 46.1809 47.2612 44.6348 47.2612C40.25 47.2612 37.7662 44.8536 37.7662 40.9003C37.7662 37.986 39.6418 34.2607 44.2293 34.2607C48.2594 34.2607 49.9829 37.2256 49.9829 40.6468C49.9829 41.4072 49.8815 42.0659 49.8055 42.3702H42.1006H42.1003ZM45.7754 39.2784C45.7754 38.5687 45.4459 37.2511 44.0012 37.2511C42.6579 37.2511 42.1257 38.4927 42.0495 39.2784H45.7754Z" fill="black"/>
<path id="Vector_8" d="M56.7496 41.2093L56.7503 47.0076H52.2133V30.1551C53.4552 29.9523 55.2547 29.8003 57.8653 29.8003C60.3238 29.8003 62.8163 30.192 64.0075 31.1043C65.1735 31.9658 65.9592 33.4864 65.9592 35.2351C65.9592 36.9838 65.3763 38.479 64.3117 39.4418C62.9178 40.6836 61.3829 41.3195 59.0765 41.3195C58.6456 41.3195 58.2866 41.2875 58.008 41.2621L58.9593 37.668C59.2129 37.6933 59.5566 37.7184 60.0381 37.7184C61.2758 37.7184 61.4479 35.9282 61.4479 35.3362C61.4479 34.0692 59.8425 33.2466 58.119 33.2466C57.4346 33.2466 56.9784 33.2973 56.7504 33.3479V37.7068L56.7497 41.2089L56.7496 41.2093Z" fill="#133B85"/>
<path id="Vector_9" d="M67.1677 38.7462C67.1677 36.7695 67.117 35.5784 67.0664 34.5395H70.9695L71.1216 36.7949H71.2229C71.8819 34.8942 73.4786 34.2607 74.5432 34.2607C74.9487 34.2607 75.126 34.2607 75.4556 34.3366V38.6195C75.126 38.5434 74.7711 38.4927 74.2897 38.4927C72.9464 38.4927 72.034 39.0503 71.8057 40.0641C71.7551 40.2921 71.7297 40.5455 71.7297 40.8497V47.0079H67.1676V38.7462H67.1677Z" fill="#133B85"/>
<path id="Vector_10" d="M81.843 34.5396H77.2809V47.0079H81.843V34.5396Z" fill="#133B85"/>
<path id="Vector_11" d="M84.682 38.7717C84.682 37.1243 84.6313 35.6799 84.5807 34.5395H88.5091L88.7119 36.136H88.8134C89.2696 35.4771 90.4608 34.2607 92.5392 34.2607C95.4538 34.2607 97.0254 36.2373 97.0254 39.6585V47.0077H92.4631V40.2161C92.4631 38.7717 91.9562 37.9353 90.8663 37.9353C89.9793 37.9353 89.5737 38.5434 89.3709 39.025C89.2696 39.2531 89.2441 39.6079 89.2441 39.9375V47.0079H84.682V38.7717Z" fill="#133B85"/>
<path id="Vector_12" d="M104.68 30.9915V34.5394H107.266V37.8845H104.68V41.4578C104.68 42.9529 105.035 43.5613 106.125 43.5613C106.607 43.5613 106.961 43.5105 107.215 43.46V46.9317C106.683 47.109 105.669 47.2612 104.503 47.2612C103.16 47.2612 102.045 46.8051 101.386 46.146C100.625 45.3858 100.22 44.144 100.22 42.2434V37.8847H98.6736V34.5396H100.22V32.0052L104.68 30.9916V30.9915Z" fill="#133B85"/>
<g id="Group">
<path id="Vector_13" d="M19.9054 57.6214C19.6177 57.7542 18.9206 57.92 18.0245 57.92C15.2362 57.92 14.0081 56.1831 14.0081 54.2028C14.0081 51.5699 15.9333 50.2312 18.1572 50.2312C19.0202 50.2312 19.7173 50.3971 20.0271 50.5631L19.6398 52.1341C19.3078 52.0014 18.8541 51.8687 18.2567 51.8687C17.1059 51.8687 16.1101 52.5435 16.1101 54.0702C16.1101 55.431 16.9178 56.2718 18.2898 56.2718C18.7766 56.2718 19.3189 56.1722 19.6287 56.0506L19.9053 57.6216L19.9054 57.6214Z" fill="black"/>
<path id="Vector_14" d="M26.0241 55.9509C26.0241 56.7253 26.0463 57.345 26.0683 57.8095H24.3532L24.2647 57.0904H24.2205C24.0213 57.389 23.5456 57.9311 22.5719 57.9311C21.3548 57.9311 20.6466 57.1456 20.6466 55.5748V52.3665H22.6381V55.2539C22.6381 55.9509 22.8705 56.3271 23.3353 56.3271C23.7115 56.3271 23.8996 56.0728 23.977 55.8625C24.0213 55.7851 24.0324 55.6855 24.0324 55.5748V52.3665H26.0239V55.9509H26.0241Z" fill="black"/>
<path id="Vector_15" d="M27.3187 56.1391C27.6285 56.3272 28.3367 56.5484 28.8346 56.5484C29.2551 56.5484 29.421 56.4488 29.421 56.2498C29.421 56.0508 29.2993 55.9621 28.7128 55.774C27.5178 55.3978 27.1084 54.7451 27.1195 54.1145C27.1195 53.0304 28.0379 52.2449 29.4652 52.2449C30.1401 52.2449 30.7376 52.3887 31.0916 52.5546L30.7708 53.9044C30.5164 53.7827 30.0074 53.6056 29.5647 53.6056C29.2216 53.6056 29.0225 53.6941 29.0225 53.9153C29.0225 54.0923 29.1995 54.203 29.8413 54.4131C30.9146 54.7671 31.324 55.3203 31.3349 56.1058C31.3349 57.1457 30.5273 57.9201 28.8454 57.9201C28.0929 57.9201 27.418 57.7651 26.9866 57.5439L27.3186 56.1389L27.3187 56.1391Z" fill="black"/>
<path id="Vector_16" d="M34.4441 50.8176V52.3664H35.5726V53.8267H34.4441V55.3867C34.4441 56.0394 34.5991 56.3049 35.0747 56.3049C35.2849 56.3049 35.4398 56.2829 35.5506 56.2607V57.7763C35.3182 57.8537 34.8757 57.9202 34.3667 57.9202C33.7803 57.9202 33.2933 57.721 33.0058 57.4334C32.6738 57.1015 32.4968 56.5594 32.4968 55.7297V53.8269H31.8219V52.3666H32.4968V51.2603L34.4443 50.8178L34.4441 50.8176Z" fill="black"/>
<path id="Vector_17" d="M42.0014 55.0328C42.0014 57.0132 40.5851 57.9314 39.0582 57.9314C37.4317 57.9314 36.1703 56.8915 36.1703 55.1215C36.1703 53.3515 37.3099 52.2451 39.1689 52.2451C40.8729 52.2451 42.0014 53.3957 42.0014 55.033V55.0328ZM38.2283 55.0882C38.2283 55.8957 38.4938 56.5265 39.1135 56.5265C39.6445 56.5265 39.9434 55.9622 39.9434 55.0882C39.9434 54.3358 39.6999 53.6499 39.1024 53.6499C38.4496 53.6499 38.2283 54.369 38.2283 55.0882Z" fill="black"/>
<path id="Vector_18" d="M42.9638 54.214C42.9638 53.495 42.9418 52.8644 42.9196 52.3664H44.5904L44.6678 53.0412H44.712C44.9113 52.7758 45.3869 52.2446 46.3164 52.2446C47.0135 52.2446 47.5557 52.5655 47.788 53.1075H47.8101C48.0313 52.8309 48.2748 52.6097 48.5625 52.4659C48.8392 52.322 49.16 52.2446 49.5252 52.2446C50.6979 52.2446 51.373 53.0966 51.373 54.6012V57.8095H49.4366V54.8999C49.4366 54.2251 49.2374 53.8379 48.7949 53.8379C48.474 53.8379 48.2748 54.048 48.1863 54.3025C48.142 54.4132 48.1309 54.5902 48.1309 54.7007V57.8095H46.1946V54.8446C46.1946 54.2361 46.0065 53.8379 45.5639 53.8379C45.1988 53.8379 45.0329 54.1033 44.9553 54.2914C44.9 54.4131 44.9 54.5569 44.9 54.6896V57.8095H42.9636V54.214H42.9638Z" fill="black"/>
<path id="Vector_19" d="M56.8164 56.0837L56.3959 57.8095H54.3268L56.4955 50.353H59.151L61.3749 57.8095H59.2173L58.7414 56.0837H56.8162H56.8164ZM58.465 54.6012L58.1221 53.2625C58.0114 52.8421 57.8677 52.2338 57.757 51.7911H57.7349C57.6242 52.2336 57.5137 52.8532 57.4029 53.2736L57.0821 54.6012H58.4652H58.465Z" fill="black"/>
<path id="Vector_20" d="M62.1717 54.2141C62.1717 53.4951 62.1497 52.8754 62.1274 52.3665H63.8425L63.931 53.0524H63.9531C64.3625 52.5215 64.9711 52.2449 65.7124 52.2449C66.8521 52.2449 67.9585 53.2516 67.9585 55.0217C67.9585 57.0131 66.6639 57.9312 65.48 57.9312C64.8605 57.9312 64.3847 57.6877 64.1854 57.4111H64.1634V60H62.1717V54.2139V54.2141ZM64.1634 55.431C64.1634 55.5526 64.1745 55.6633 64.1966 55.7629C64.274 56.1169 64.5728 56.4157 64.9711 56.4157C65.5686 56.4157 65.9337 55.8956 65.9337 55.1103C65.9337 54.325 65.6239 53.7939 64.9933 53.7939C64.595 53.7939 64.2519 54.1147 64.1856 54.502C64.1636 54.5794 64.1636 54.6678 64.1636 54.7563V55.4311L64.1634 55.431Z" fill="black"/>
<path id="Vector_21" d="M68.921 54.2141C68.921 53.4951 68.8989 52.8754 68.8767 52.3665H70.5918L70.6803 53.0524H70.7023C71.1117 52.5215 71.7203 52.2449 72.4617 52.2449C73.6013 52.2449 74.7078 53.2516 74.7078 55.0217C74.7078 57.0131 73.4132 57.9312 72.2293 57.9312C71.6098 57.9312 71.1339 57.6877 70.9347 57.4111H70.9125V60H68.921V54.2139V54.2141ZM70.9125 55.431C70.9125 55.5526 70.9236 55.6633 70.9456 55.7629C71.023 56.1169 71.3219 56.4157 71.7202 56.4157C72.3176 56.4157 72.6828 55.8956 72.6828 55.1103C72.6828 54.325 72.373 53.7939 71.7424 53.7939C71.3441 53.7939 71.001 54.1147 70.9347 54.502C70.9125 54.5794 70.9125 54.6678 70.9125 54.7563V55.4311V55.431Z" fill="black"/>
<path id="Vector_22" d="M78.8015 57.8095L78.6907 57.3337H78.6576C78.2703 57.7652 77.7281 57.9311 77.1417 57.9311C76.0352 57.9311 75.3492 57.1235 75.3492 56.2162C75.3492 54.7559 76.655 54.1143 78.5026 54.1032V54.0589C78.5026 53.8377 78.3367 53.5942 77.6174 53.5942C77.0421 53.5942 76.4335 53.7934 76.0795 54.0036L75.7255 52.7313C76.0795 52.5544 76.854 52.2446 77.9827 52.2446C79.8526 52.2446 80.5054 53.2845 80.5054 54.6454V56.4819C80.5054 57.024 80.5275 57.5329 80.594 57.8095H78.8015ZM78.5691 55.3202C77.7614 55.3202 77.2967 55.5525 77.2967 56.0283C77.2967 56.3712 77.5291 56.5483 77.8611 56.5483C78.1488 56.5483 78.4585 56.3491 78.5471 56.0505C78.5691 55.962 78.5691 55.8624 78.5691 55.7628V55.3204V55.3202Z" fill="black"/>
<path id="Vector_23" d="M81.7333 54.203C81.7333 53.3401 81.7113 52.8201 81.6891 52.3665H83.3931L83.4595 53.3512H83.5038C83.7915 52.5215 84.4885 52.2449 84.9532 52.2449C85.1302 52.2449 85.2076 52.2449 85.3515 52.278V54.1477C85.2076 54.1145 85.0528 54.0923 84.8425 54.0923C84.2561 54.0923 83.8578 54.3357 83.7582 54.7782C83.7362 54.8778 83.7251 54.9883 83.7251 55.1212V57.8095H81.7335V54.203H81.7333Z" fill="black"/>
<path id="Vector_24" d="M87.7194 55.7849C87.7859 56.2165 88.4165 56.4598 89.1136 56.4598C89.6337 56.4598 90.1205 56.4044 90.6073 56.2496L90.8617 57.5772C90.2088 57.8427 89.5008 57.9202 88.8257 57.9202C86.9116 57.9202 85.8271 56.8692 85.8271 55.1435C85.8271 53.8712 86.6459 52.2449 88.6486 52.2449C90.4079 52.2449 91.1602 53.5393 91.1602 55.0328C91.1602 55.3647 91.1159 55.6524 91.0828 55.7851H87.7191L87.7194 55.7849ZM89.3238 54.4353C89.3238 54.1256 89.1799 53.5502 88.5493 53.5502C87.9629 53.5502 87.7305 54.0923 87.6974 54.4353H89.3238Z" fill="black"/>
<path id="Vector_25" d="M92.0676 49.9548H94.0592V57.8096H92.0676V49.9548Z" fill="black"/>
</g>
</g>
</g>
<defs>
<clipPath id="clip0_283_4799">
<rect width="107.266" height="60" fill="white"/>
</clipPath>
</defs>
</svg>
