<?xml version="1.0" encoding="UTF-8"?><svg id="uuid-ac9bd458-818b-45a9-9219-b66a72c6a79c" xmlns="http://www.w3.org/2000/svg" viewBox="0 0 165.65 222.22"><defs><style>.uuid-ba9d8328-7bdb-49d0-9ed3-6bea914d8081,.uuid-e6e6c624-734d-4e94-92c5-61730bc37ad2{stroke-width:0px;}.uuid-e6e6c624-734d-4e94-92c5-61730bc37ad2{fill:#133b85;}</style></defs><g id="uuid-d580081c-a44e-4bd5-8bdc-1172dda24a1e"><path class="uuid-e6e6c624-734d-4e94-92c5-61730bc37ad2" d="m151.22,104.68c-8.8-6.74-27.22-9.64-45.39-9.64-2.28,0-4.47.02-6.58.05-1.43,9.3-6.54,16.8-13.65,22.17-5.13,3.83-12.05,6.79-21.54,8.7v96.26h33.53v-42.86s0-25.89,0-25.89v-32.22c1.69-.37,5.06-.75,10.11-.75,12.74,0,24.6,6.08,24.6,15.45,0,4.38-1.27,17.61-10.42,17.61-3.56,0-6.1-.18-7.97-.37l-7.03,26.56c2.06.19,4.71.42,7.9.42,17.04,0,28.39-4.7,38.69-13.88,7.87-7.12,12.18-18.36,12.18-31.09s-5.81-24.16-14.42-30.53Z"/><path class="uuid-ba9d8328-7bdb-49d0-9ed3-6bea914d8081" d="m74.92,59v-.37c14.8-5.62,20.6-15.92,20.6-26.6,0-12.17-7.31-21.35-17.05-25.85C68.55,1.13,57.88,0,39.9,0,24.35,0,7.68,1.31,0,2.62v123.81c6.93,1.13,17.98,2.06,33.34,2.06,12.48,0,22.55-.88,30.72-2.53,9.49-1.92,16.41-4.88,21.54-8.7,7.11-5.37,12.22-12.87,13.65-22.17.27-1.73.4-3.52.4-5.37,0-14.98-9.18-26.41-24.72-30.72Zm-31.66,44.77c-4.31,0-7.31,0-9.74-.38l-.08-29.34.08-24.61v-24.54c2.25-.37,5.43-.75,11.05-.75,11.43,0,17.44,4.69,17.05,12.18-.25,4.67-2.55,13.11-10.14,13.11l-1.83.1-6.35,23.65,3.36.02c12.74,0,17.4,4.33,17.4,15.01s-9.55,15.55-20.79,15.55Z"/></g></svg>